<svg width="176" height="74" viewBox="0 0 176 74" fill="none" xmlns="http://www.w3.org/2000/svg">
<path d="M32.1562 41.9375C31.9896 41.4375 31.8438 41.125 31.7188 41C31.5938 40.75 31.5104 40.5833 31.4688 40.5C31.4271 40.375 31.4062 40.2708 31.4062 40.1875L31.2188 39.5C31.0104 39.125 30.9062 38.875 30.9062 38.75C30.4896 38.5 30.2188 38.3333 30.0938 38.25C29.8854 37.7917 29.6562 37.3125 29.4062 36.8125C29.1562 36.2708 28.9896 35.7083 28.9062 35.125C28.6146 34.5833 28.4062 34.25 28.2812 34.125C28.0729 33.625 27.9688 33.3125 27.9688 33.1875C27.9688 33.0625 27.9479 32.9792 27.9062 32.9375C27.6562 32.6458 27.5312 32.4375 27.5312 32.3125C27.5312 32.1458 27.5104 32.0417 27.4688 32C27.4271 31.9167 27.3646 31.7708 27.2812 31.5625C27.1979 31.3542 27.1354 31.2292 27.0938 31.1875C26.9271 31.0208 26.7188 30.7292 26.4688 30.3125C26.2604 29.8542 26.1146 29.625 26.0312 29.625C25.9479 29.625 25.9271 29.7083 25.9688 29.875C26.0104 30.0417 26.0521 30.2292 26.0938 30.4375C26.1771 30.6042 26.2396 30.7708 26.2812 30.9375C26.3229 31.0625 26.3438 31.1458 26.3438 31.1875L26.4688 31.875C26.5104 32.375 26.5521 32.6667 26.5938 32.75C26.7188 33.25 26.7604 33.5625 26.7188 33.6875C26.6771 33.8125 26.6562 33.9167 26.6562 34C26.8229 34.5 26.9062 34.9167 26.9062 35.25C26.9896 36 27.0312 36.5208 27.0312 36.8125C27.0729 37.1042 27.0521 37.3542 26.9688 37.5625C27.0938 38.0208 27.1562 38.2917 27.1562 38.375C27.1979 38.4167 27.2188 38.4792 27.2188 38.5625C27.1771 39.0625 27.1771 39.375 27.2188 39.5L27.3438 40.3125V41L27.4062 41.875C27.4896 42.5 27.5104 42.8958 27.4688 43.0625L27.5938 43.75C27.5521 44.2917 27.5521 44.625 27.5938 44.75C27.6354 44.875 27.6562 44.9792 27.6562 45.0625C27.6146 45.5208 27.6146 45.7917 27.6562 45.875C27.6562 46.1667 27.6562 46.375 27.6562 46.5C27.6979 46.5833 27.7396 46.6875 27.7812 46.8125L27.7188 47.5C27.8021 47.875 27.8229 48.1458 27.7812 48.3125C27.7812 48.4375 27.7812 48.6042 27.7812 48.8125C27.8229 49.1042 27.8229 49.2708 27.7812 49.3125C27.7812 49.3542 27.7812 49.4167 27.7812 49.5C27.7812 49.9167 27.7812 50.2292 27.7812 50.4375C27.7812 50.6042 27.7812 50.7917 27.7812 51C27.8229 51.2917 27.8229 51.4792 27.7812 51.5625C27.7812 51.6458 27.7812 51.75 27.7812 51.875L27.7188 52.625C27.7604 53.125 27.7604 53.4792 27.7188 53.6875C27.7188 53.8542 27.7188 54.0417 27.7188 54.25C27.7188 54.75 27.7188 55.0208 27.7188 55.0625C27.7604 55.1042 27.7812 55.1458 27.7812 55.1875C27.7396 55.7708 27.6979 56.1667 27.6562 56.375C27.6562 56.5833 27.6146 56.7292 27.5312 56.8125C27.5312 57.3542 27.4896 57.7083 27.4062 57.875C27.4062 58.2917 27.3854 58.5 27.3438 58.5C27.3438 58.5 27.3438 58.5208 27.3438 58.5625C27.2604 59.0625 27.2188 59.3125 27.2188 59.3125C27.2604 59.3542 27.2812 59.4167 27.2812 59.5L27.0938 60.1875C26.9271 60.6875 26.8438 60.9583 26.8438 61C26.8854 61.0417 26.9062 61.0833 26.9062 61.125L26.5938 61.8125L26.3438 62.5C26.3438 62.9167 26.2396 63.2917 26.0312 63.625C25.9479 63.8333 25.8646 64 25.7812 64.125C25.7396 64.25 25.6771 64.4167 25.5938 64.625C25.3021 65.125 25.1146 65.4375 25.0312 65.5625C24.8646 65.8125 24.7604 66.0417 24.7188 66.25C24.5104 66.5 24.3646 66.7083 24.2812 66.875C23.9062 67.25 23.6354 67.5208 23.4688 67.6875C23.3021 67.8542 23.1562 68.1042 23.0312 68.4375C22.6146 68.7292 22.3646 68.9167 22.2812 69C22.1979 69.125 22.1146 69.2292 22.0312 69.3125C21.9062 69.3958 21.7188 69.5625 21.4688 69.8125C21.0938 70.0208 20.8438 70.1667 20.7188 70.25C20.6354 70.375 20.5104 70.4792 20.3438 70.5625C20.0938 70.7292 19.8854 70.8542 19.7188 70.9375C19.3021 71.2708 19.0521 71.4792 18.9688 71.5625C18.6354 71.7292 18.4271 71.8958 18.3438 72.0625C18.0938 72.1458 17.9062 72.2083 17.7812 72.25C17.6562 72.3333 17.5521 72.3958 17.4688 72.4375C17.2604 72.6042 17.0312 72.6875 16.7812 72.6875C16.2812 72.8958 15.9688 73 15.8438 73C15.7188 73 15.5521 73.0208 15.3438 73.0625L14.5938 73.3125C14.2604 73.3958 13.9688 73.4583 13.7188 73.5C13.5104 73.5833 13.3021 73.625 13.0938 73.625C12.5104 73.6667 12.2188 73.6875 12.2188 73.6875C12.0104 73.6875 11.7188 73.6667 11.3438 73.625C10.9271 73.5833 10.6146 73.5208 10.4062 73.4375L9.71875 73.3125L8.96875 73.1875C8.42708 73.0208 8.05208 72.9167 7.84375 72.875C7.42708 72.7083 7.19792 72.625 7.15625 72.625C6.86458 72.4167 6.65625 72.2708 6.53125 72.1875C6.40625 72.1458 6.26042 72.0833 6.09375 72L5.59375 71.5L5.09375 71C4.67708 70.5417 4.28125 70.2292 3.90625 70.0625C3.44792 69.6458 3.21875 69.4375 3.21875 69.4375L2.96875 68.6875L2.34375 68.0625C2.17708 67.8958 2.07292 67.7292 2.03125 67.5625C1.94792 67.3958 1.82292 67.2708 1.65625 67.1875C1.53125 66.8542 1.46875 66.6667 1.46875 66.625C1.42708 66.5833 1.38542 66.5417 1.34375 66.5L1.15625 65.6875L0.96875 64.9375C0.84375 64.4375 0.71875 64.0833 0.59375 63.875C0.635417 63.5833 0.614583 63.3542 0.53125 63.1875L0.59375 62.5C0.59375 62.375 0.614583 62.2708 0.65625 62.1875C0.697917 62.1042 0.71875 61.9792 0.71875 61.8125C0.84375 61.1875 0.947917 60.7917 1.03125 60.625C1.11458 60.4583 1.15625 60.25 1.15625 60C1.19792 59.75 1.23958 59.5625 1.28125 59.4375C1.32292 59.3542 1.34375 59.25 1.34375 59.125C1.63542 58.8333 1.78125 58.6458 1.78125 58.5625C1.94792 58.1875 2.07292 57.9583 2.15625 57.875C2.36458 57.4583 2.48958 57.2292 2.53125 57.1875C2.53125 57.1458 2.57292 57.1042 2.65625 57.0625C2.94792 56.7292 3.13542 56.5417 3.21875 56.5C3.26042 56.4167 3.32292 56.3542 3.40625 56.3125C3.53125 56.0625 3.63542 55.9167 3.71875 55.875C3.76042 55.7917 3.84375 55.6875 3.96875 55.5625C4.05208 55.4792 4.13542 55.3958 4.21875 55.3125C4.30208 55.2292 4.38542 55.1042 4.46875 54.9375L5.03125 54.5C5.44792 54.1667 5.69792 53.9792 5.78125 53.9375C5.82292 53.8542 5.86458 53.7917 5.90625 53.75L6.40625 53.25L6.96875 52.8125C7.26042 52.6458 7.42708 52.5625 7.46875 52.5625C7.51042 52.5208 7.57292 52.4583 7.65625 52.375C8.03125 52.0833 8.26042 51.9167 8.34375 51.875C8.76042 51.7917 9.01042 51.7083 9.09375 51.625C9.59375 51.7083 9.84375 51.75 9.84375 51.75C10.1354 51.7083 10.3229 51.7083 10.4062 51.75C10.4896 51.75 10.6146 51.75 10.7812 51.75L11.4688 52C11.8438 52.0833 12.0729 52.125 12.1562 52.125C12.5312 52.3333 12.8021 52.4792 12.9688 52.5625C13.4271 52.8125 13.6771 52.9792 13.7188 53.0625C13.7604 53.1042 13.8229 53.1458 13.9062 53.1875C14.0729 53.3542 14.3021 53.625 14.5938 54C14.8438 54.1667 15.0312 54.3125 15.1562 54.4375C15.4479 54.8542 15.6146 55.0625 15.6562 55.0625L16.1562 55.625C16.1979 55.9583 16.2396 56.1875 16.2812 56.3125C16.3229 56.7708 16.3229 57 16.2812 57C16.2812 57.0417 16.2812 57.1042 16.2812 57.1875C16.3646 57.6042 16.3438 57.875 16.2188 58C16.1354 58.125 16.0312 58.2708 15.9062 58.4375C15.6979 58.6875 15.5729 58.8542 15.5312 58.9375C15.5312 59.0208 15.5312 59.125 15.5312 59.25C15.2812 59.625 15.1354 59.8542 15.0938 59.9375C14.8438 60.1042 14.5521 60.2708 14.2188 60.4375C13.8438 60.6875 13.6146 60.8542 13.5312 60.9375C13.3229 60.5208 13.1979 60.2708 13.1562 60.1875V59.4375C13.1562 59.0208 13.1146 58.75 13.0312 58.625C12.9479 58.25 12.8646 58.0208 12.7812 57.9375C12.6146 57.4792 12.5104 57.2292 12.4688 57.1875C12.1354 56.9375 11.9688 56.8125 11.9688 56.8125C11.9688 56.7708 11.9271 56.75 11.8438 56.75L11.1562 56.375L11.0938 55.4375L10.4688 55.875C10.1354 55.7083 9.92708 55.5833 9.84375 55.5C9.51042 55.3333 9.30208 55.2083 9.21875 55.125H8.46875C8.01042 55 7.73958 54.9583 7.65625 55C7.57292 55 7.48958 55 7.40625 55C6.98958 55.1667 6.73958 55.25 6.65625 55.25C6.32292 55.3333 6.15625 55.3958 6.15625 55.4375C6.11458 55.4792 6.07292 55.5208 6.03125 55.5625C5.73958 56.0208 5.59375 56.25 5.59375 56.25C5.34375 56.5833 5.17708 56.8333 5.09375 57C4.96875 57.25 4.90625 57.5 4.90625 57.75L4.65625 58.4375C4.57292 58.6875 4.51042 58.8333 4.46875 58.875C4.42708 58.9167 4.38542 58.9792 4.34375 59.0625C4.13542 59.5625 4.03125 59.9583 4.03125 60.25C3.94792 60.6667 3.90625 60.8958 3.90625 60.9375C3.86458 61.0208 3.82292 61.0833 3.78125 61.125C3.98958 61.5417 4.09375 61.7917 4.09375 61.875C4.05208 61.9583 4.03125 62.0417 4.03125 62.125C4.15625 62.5833 4.23958 62.8333 4.28125 62.875C4.40625 63.2917 4.48958 63.5208 4.53125 63.5625C4.53125 63.6458 4.53125 63.7292 4.53125 63.8125C4.65625 64.3542 4.76042 64.6458 4.84375 64.6875C4.88542 64.7292 4.92708 64.7708 4.96875 64.8125C5.17708 65.1458 5.32292 65.3333 5.40625 65.375C5.65625 65.625 5.82292 65.7917 5.90625 65.875C5.98958 65.9583 6.09375 66.0625 6.21875 66.1875C6.30208 66.3542 6.36458 66.5 6.40625 66.625C6.78125 67.0417 6.96875 67.2708 6.96875 67.3125L7.65625 68C7.82292 68.125 7.92708 68.2292 7.96875 68.3125C8.01042 68.3958 8.11458 68.5 8.28125 68.625C8.61458 68.9167 8.86458 69.1458 9.03125 69.3125C9.48958 69.6042 9.73958 69.75 9.78125 69.75C10.1562 69.9167 10.3646 70 10.4062 70C10.4062 70.0417 10.4479 70.0625 10.5312 70.0625C11.0312 70.2292 11.3438 70.3125 11.4688 70.3125C11.5521 70.3125 11.6354 70.3333 11.7188 70.375L12.4062 70.75C12.9062 70.8333 13.1979 70.875 13.2812 70.875C13.5312 70.875 13.7812 70.875 14.0312 70.875C14.4062 70.875 14.6562 70.8542 14.7812 70.8125C14.9479 70.8125 15.1146 70.7708 15.2812 70.6875C15.6146 70.7708 15.9062 70.7708 16.1562 70.6875C16.6146 70.6042 16.8854 70.5417 16.9688 70.5C17.0938 70.5 17.1771 70.5 17.2188 70.5C17.6354 70.375 17.9688 70.2708 18.2188 70.1875C18.4688 70.1042 18.7396 69.9792 19.0312 69.8125C19.4062 69.5625 19.6354 69.4167 19.7188 69.375C19.8021 69.3333 19.8854 69.2917 19.9688 69.25C20.0938 68.9583 20.1562 68.7917 20.1562 68.75C20.1979 68.7083 20.2396 68.6458 20.2812 68.5625C20.5729 68.1875 20.7188 67.9792 20.7188 67.9375C20.7604 67.8958 20.8021 67.875 20.8438 67.875L21.2812 67.3125C21.4896 66.9375 21.6354 66.7083 21.7188 66.625C21.9271 65.875 22.1354 65.375 22.3438 65.125L22.8438 64.5625C22.7604 64.1458 22.8021 63.8125 22.9688 63.5625L23.3438 62.8125C23.3021 62.2708 23.3229 61.8542 23.4062 61.5625C23.5312 61.3125 23.6354 61.0833 23.7188 60.875C23.7604 60.625 23.7604 60.4583 23.7188 60.375C23.7188 60.3333 23.7188 60.2708 23.7188 60.1875C23.8021 60.0208 23.8646 59.875 23.9062 59.75C23.9479 59.625 23.9688 59.4792 23.9688 59.3125C24.0938 59.1042 24.1979 58.875 24.2812 58.625C24.2812 58.2917 24.2812 58.0417 24.2812 57.875C24.1146 57.5 24.0729 57.2708 24.1562 57.1875C24.0312 56.7292 23.9896 56.4792 24.0312 56.4375C24.0729 56.3958 24.0938 56.3542 24.0938 56.3125C24.0104 55.9792 24.0521 55.6458 24.2188 55.3125C24.1771 54.8542 24.1562 54.625 24.1562 54.625C24.1979 54.0833 24.2188 53.75 24.2188 53.625C24.1771 53.0833 24.0938 52.7708 23.9688 52.6875C23.9688 52.4792 23.9896 52.3542 24.0312 52.3125C24.0729 52.2292 24.0938 52.125 24.0938 52C24.1354 51.375 24.1146 50.9792 24.0312 50.8125C23.9479 50.6458 23.9271 50.5 23.9688 50.375L24.3438 49.5625L23.9688 48.9375V48.0625L23.7188 47C23.7188 46.4167 23.6979 46.0208 23.6562 45.8125C23.6562 45.5208 23.6562 45.2708 23.6562 45.0625C23.7396 44.6042 23.7604 44.3542 23.7188 44.3125C23.6771 44.2292 23.6562 44.1667 23.6562 44.125C23.6979 43.6667 23.6979 43.375 23.6562 43.25C23.6146 43.0833 23.5938 42.9167 23.5938 42.75C23.5521 42.3333 23.5312 42.0625 23.5312 41.9375C23.4479 41.3958 23.4062 41.0417 23.4062 40.875C23.4062 40.7917 23.4062 40.6875 23.4062 40.5625C23.4479 40.4375 23.4688 40.2917 23.4688 40.125C23.4688 39.75 23.4271 39.5208 23.3438 39.4375C23.3021 39.2708 23.3021 39.125 23.3438 39C23.3854 38.8333 23.4062 38.6667 23.4062 38.5L23.1562 37.8125C23.1146 37.6042 23.0938 37.2708 23.0938 36.8125C23.0938 36.6875 23.0729 36.5417 23.0312 36.375C22.9896 36.2083 22.9271 36.0625 22.8438 35.9375C22.8438 35.6042 22.8229 35.375 22.7812 35.25L22.6562 34.5625C22.6979 34.0625 22.6979 33.7917 22.6562 33.75L22.4062 32.875C22.3229 32.5 22.2812 32.2917 22.2812 32.25C22.3229 32.2083 22.3438 32.1458 22.3438 32.0625C22.3438 31.8125 22.3229 31.6458 22.2812 31.5625C22.2812 31.4375 22.2812 31.3333 22.2812 31.25C22.1146 30.625 21.9896 30.1875 21.9062 29.9375C21.8646 29.6875 21.8021 29.4583 21.7188 29.25L21.6562 28.5C21.5729 28 21.5312 27.7292 21.5312 27.6875C21.5312 27.6458 21.5104 27.6042 21.4688 27.5625C21.4271 27.2292 21.3229 27.0208 21.1562 26.9375L21.0938 26.0625C20.9688 25.5625 20.8646 25.2917 20.7812 25.25C20.7396 25.1667 20.7396 25.1042 20.7812 25.0625C20.6979 24.6875 20.6354 24.4375 20.5938 24.3125C20.5521 24.1875 20.5104 24.0625 20.4688 23.9375C20.4688 23.5625 20.4271 23.3333 20.3438 23.25L20.1562 22.5V21.75C19.9479 21.2083 19.8021 20.8542 19.7188 20.6875C19.6771 20.4792 19.6562 20.2917 19.6562 20.125C19.6979 19.5833 19.6146 19.2917 19.4062 19.25C19.4062 18.9167 19.3646 18.5833 19.2812 18.25C19.1979 17.7917 19.1771 17.5417 19.2188 17.5C19.0521 16.9167 18.9479 16.375 18.9062 15.875C18.8646 15.375 18.7604 14.8333 18.5938 14.25C18.5521 13.7917 18.5312 13.5417 18.5312 13.5C18.8646 13.375 19.0938 13.25 19.2188 13.125L19.7812 12.6875C20.1562 12.4375 20.4688 12.2292 20.7188 12.0625C20.8438 11.9792 20.9479 11.9167 21.0312 11.875C21.1146 11.7917 21.2604 11.75 21.4688 11.75L22.0312 12.1875C22.2396 12.4375 22.3646 12.6458 22.4062 12.8125C22.4479 12.9375 22.5104 13.1042 22.5938 13.3125C23.0938 13.6042 23.4062 13.7708 23.5312 13.8125C23.6562 14.1458 23.7812 14.375 23.9062 14.5C23.9062 14.875 23.9688 15.1042 24.0938 15.1875C24.1771 15.6458 24.3021 15.9167 24.4688 16L24.5312 16.75C24.5312 16.9167 24.5521 17.0625 24.5938 17.1875C24.6771 17.3125 24.7604 17.4167 24.8438 17.5C24.8438 17.7083 24.9271 17.9375 25.0938 18.1875L25.2812 18.9375C25.4062 19.3125 25.5104 19.5417 25.5938 19.625C25.8021 20.1667 25.9479 20.4583 26.0312 20.5C26.2396 21.375 26.5521 22.1458 26.9688 22.8125C27.0104 22.9375 27.0521 23.0625 27.0938 23.1875C27.1354 23.2708 27.1979 23.375 27.2812 23.5C27.4479 24 27.5521 24.2708 27.5938 24.3125C27.8021 24.7292 27.9271 24.9792 27.9688 25.0625C28.1354 25.5208 28.2188 25.75 28.2188 25.75C28.2604 25.75 28.2812 25.7708 28.2812 25.8125C28.4062 26.1042 28.5104 26.4167 28.5938 26.75C28.8438 27.0833 28.9688 27.2917 28.9688 27.375L29.2188 28.125C29.3438 28.375 29.5521 28.5833 29.8438 28.75C29.8438 29.0833 29.9271 29.3333 30.0938 29.5C30.2604 29.875 30.4271 30.1667 30.5938 30.375L30.8438 31.125C30.9688 31.2083 31.0938 31.4167 31.2188 31.75L31.5312 32.6875C31.6146 32.7708 31.6562 32.875 31.6562 33C31.6979 33.125 31.7604 33.2708 31.8438 33.4375C31.9271 33.5208 31.9896 33.625 32.0312 33.75C32.1146 33.875 32.2188 34 32.3438 34.125C32.3438 34.3333 32.3646 34.5 32.4062 34.625C32.4896 34.75 32.5729 34.8542 32.6562 34.9375L33.0312 35.5625C33.1562 36.1458 33.2812 36.4583 33.4062 36.5C33.6146 36.9167 33.6979 37.1458 33.6562 37.1875C33.6562 37.1875 33.6562 37.2083 33.6562 37.25C33.9062 37.6667 34.0312 38.0208 34.0312 38.3125L34.5312 38.8125C34.6979 39.1875 34.8021 39.3958 34.8438 39.4375C34.9271 39.4792 35.0104 39.5417 35.0938 39.625C35.3021 40.2083 35.4062 40.5208 35.4062 40.5625C35.6146 40.8958 35.7188 41.0833 35.7188 41.125C35.7604 41.1667 35.7812 41.2083 35.7812 41.25C35.9896 41.5 36.0938 41.7083 36.0938 41.875C36.1354 42.0417 36.1979 42.2292 36.2812 42.4375C36.3646 42.8542 36.4479 43.1875 36.5312 43.4375C36.8229 44.2292 37.0521 44.7708 37.2188 45.0625L37.5938 45.6875C37.8021 46.3125 37.9271 46.7708 37.9688 47.0625C38.0521 47.3542 38.1979 47.6042 38.4062 47.8125C38.5729 48.2292 38.6771 48.4792 38.7188 48.5625C39.0104 49.0625 39.1771 49.3333 39.2188 49.375C39.2188 49.625 39.2604 49.8542 39.3438 50.0625C39.4271 50.2292 39.4896 50.4375 39.5312 50.6875C39.6146 50.8958 39.6979 51.1042 39.7812 51.3125C39.9896 51.7292 40.1354 51.9792 40.2188 52.0625C40.3021 52.0625 40.3438 52.1875 40.3438 52.4375C40.3854 52.6875 40.4271 52.8125 40.4688 52.8125L41.0312 54.1875C41.0729 54.1875 41.0521 54 40.9688 53.625C40.9271 53.2083 40.9271 52.9583 40.9688 52.875C40.9271 52.375 40.9062 52 40.9062 51.75C40.9062 51.4583 40.8854 51.2917 40.8438 51.25L40.9062 50.5625C40.8646 50.2708 40.8229 50.0625 40.7812 49.9375C40.7812 49.8125 40.7812 49.6458 40.7812 49.4375C40.6979 49.0208 40.6562 48.8125 40.6562 48.8125C40.6979 48.7708 40.7188 48.7292 40.7188 48.6875C40.7188 48.2292 40.7188 47.9375 40.7188 47.8125L40.6562 46.9375V45.75C40.6146 45.2083 40.6146 44.9375 40.6562 44.9375C40.6562 44.5625 40.6562 44.3125 40.6562 44.1875C40.6562 44.0208 40.6146 43.8333 40.5312 43.625L40.7188 42.9375C40.7188 42.7708 40.7188 42.6667 40.7188 42.625C40.7604 42.5417 40.8229 42.3958 40.9062 42.1875L40.9688 41.4375C40.7604 41.1042 40.6562 40.7917 40.6562 40.5L40.9062 39.8125C40.7396 39.2708 40.6354 38.9792 40.5938 38.9375C40.7188 38.5208 40.7604 38.2917 40.7188 38.25C40.8021 37.8333 40.8854 37.5417 40.9688 37.375L41.1562 36.625L41.0312 35.9375C41.0312 35.6458 41.0521 35.4792 41.0938 35.4375C41.1771 35.3958 41.2396 35.2917 41.2812 35.125C41.2396 34.9167 41.2188 34.7708 41.2188 34.6875C41.2188 34.5625 41.2188 34.4583 41.2188 34.375L41.4062 33.25C41.5729 32.9167 41.6562 32.625 41.6562 32.375L41.7812 31.375C41.9062 31.0833 41.9688 30.8542 41.9688 30.6875C42.0104 30.4792 42.0521 30.2917 42.0938 30.125C42.1354 29.6667 42.1562 29.4167 42.1562 29.375C42.2812 28.8333 42.3229 28.5417 42.2812 28.5C42.4062 28.0833 42.4688 27.8542 42.4688 27.8125C42.5104 27.7292 42.5312 27.6458 42.5312 27.5625C42.7812 27.1042 42.9062 26.6667 42.9062 26.25L43.2812 25.625V24.9375C43.4062 24.5625 43.4479 24.3333 43.4062 24.25C43.4062 24.1667 43.4479 24.0833 43.5312 24L43.7188 23.3125L43.9062 22.4375C43.9479 22.1042 43.9896 21.875 44.0312 21.75C44.3229 21.5417 44.4896 21.1875 44.5312 20.6875L44.9062 19.8125C45.1562 19.5625 45.2812 19.3958 45.2812 19.3125C45.2812 19.1875 45.3229 19.0833 45.4062 19C45.6146 18.375 45.7396 18.0417 45.7812 18L46.2188 17.0625L46.5938 16.4375C46.7188 16.0208 46.7812 15.7917 46.7812 15.75L47.1562 15.125C47.1979 14.9167 47.2604 14.75 47.3438 14.625C47.4271 14.5 47.5104 14.3333 47.5938 14.125C47.6771 13.9583 47.7604 13.7917 47.8438 13.625C47.9271 13.4583 48.0104 13.2292 48.0938 12.9375L48.4062 12.3125C48.6562 11.8125 48.7812 11.4792 48.7812 11.3125L49.0938 10.6875L49.5312 10C49.5312 9.83333 49.6562 9.625 49.9062 9.375C49.9896 9.29167 50.0521 9.20833 50.0938 9.125C50.1771 9 50.2604 8.85417 50.3438 8.6875C50.6771 8.3125 50.8438 8.125 50.8438 8.125C50.8854 8.125 50.9271 8.08333 50.9688 8C51.1771 7.58333 51.2812 7.35417 51.2812 7.3125C51.6562 6.9375 51.8646 6.72917 51.9062 6.6875C51.9479 6.60417 51.9688 6.52083 51.9688 6.4375L52.5312 5.9375L53.1562 5.375C53.2812 5.25 53.4062 5.125 53.5312 5C53.6979 4.83333 53.8646 4.6875 54.0312 4.5625L54.5938 4.125C54.8854 3.79167 55.0312 3.60417 55.0312 3.5625C55.0729 3.52083 55.1146 3.5 55.1562 3.5C55.5312 3.20833 55.7396 3.04167 55.7812 3C56.0729 2.79167 56.2604 2.6875 56.3438 2.6875C56.4271 2.64583 56.5104 2.58333 56.5938 2.5C56.6771 2.45833 56.7604 2.39583 56.8438 2.3125C56.9271 2.1875 57.0104 2.08333 57.0938 2C57.3438 1.875 57.5312 1.79167 57.6562 1.75C57.7812 1.70833 57.9062 1.64583 58.0312 1.5625C58.7396 1.1875 59.3021 0.875 59.7188 0.625C60.1771 0.541667 60.4479 0.416667 60.5312 0.25C60.7812 0.25 61.0312 0.25 61.2812 0.25C61.5312 0.25 61.7604 0.229167 61.9688 0.1875C62.3854 0.145833 62.6146 0.125 62.6562 0.125C62.9062 0.125 63.1354 0.125 63.3438 0.125C63.7188 0.291667 64.0104 0.375 64.2188 0.375C64.6771 0.333333 64.9271 0.333333 64.9688 0.375C65.3438 0.5 65.6146 0.604167 65.7812 0.6875C66.1562 0.979167 66.3646 1.14583 66.4062 1.1875C66.6979 1.4375 66.9271 1.64583 67.0938 1.8125L67.6562 2.75C67.9896 3.33333 68.1771 3.72917 68.2188 3.9375C68.5104 4.27083 68.6562 4.45833 68.6562 4.5C68.6979 4.95833 68.7188 5.25 68.7188 5.375C68.7604 5.45833 68.7812 5.5625 68.7812 5.6875C68.7812 5.85417 68.7604 6.02083 68.7188 6.1875C68.6771 6.3125 68.6354 6.45833 68.5938 6.625C68.5521 7.08333 68.4896 7.4375 68.4062 7.6875C68.3229 7.89583 68.2812 8.10417 68.2812 8.3125C68.0729 8.8125 67.8854 9.125 67.7188 9.25C67.5521 9.66667 67.4479 9.89583 67.4062 9.9375C67.4062 9.97917 67.3854 10.0417 67.3438 10.125C67.0104 10.5 66.6979 10.75 66.4062 10.875C66.0729 11.0833 65.8854 11.2083 65.8438 11.25C65.8438 11.25 65.8229 11.25 65.7812 11.25C65.3229 11.6667 65.0729 11.9167 65.0312 12C64.6146 12.125 64.3229 12.3333 64.1562 12.625C63.8646 12.6667 63.6354 12.7708 63.4688 12.9375C63.0938 13.1458 62.7812 13.3125 62.5312 13.4375C62.3229 13.5208 62.1146 13.6667 61.9062 13.875C61.4896 14 61.2396 14.0625 61.1562 14.0625L59.4062 14.125C59.1562 13.7083 59.0521 13.4792 59.0938 13.4375C59.6354 13.0208 59.9062 12.7708 59.9062 12.6875L60.4688 12.25H61.4062C61.7396 12.25 61.9688 12.2292 62.0938 12.1875C62.4271 12.0208 62.6354 11.9167 62.7188 11.875C62.8021 11.8333 62.8854 11.7917 62.9688 11.75L63.6562 11.375C63.7812 11.0833 63.8646 10.8958 63.9062 10.8125C63.9479 10.7292 63.9688 10.6042 63.9688 10.4375L64.4062 9.875C64.2812 9.45833 64.2604 9.20833 64.3438 9.125C64.4271 8.75 64.4688 8.5625 64.4688 8.5625C64.5104 8.52083 64.5312 8.47917 64.5312 8.4375C64.5312 8.27083 64.5312 8.10417 64.5312 7.9375C64.5729 7.72917 64.5938 7.52083 64.5938 7.3125C64.5938 6.97917 64.5729 6.75 64.5312 6.625C64.4896 6.45833 64.4271 6.3125 64.3438 6.1875C64.3021 6.0625 64.2396 5.95833 64.1562 5.875C63.9479 5.5 63.8438 5.29167 63.8438 5.25C63.6354 4.83333 63.5104 4.58333 63.4688 4.5C63.1354 4.16667 62.7604 3.9375 62.3438 3.8125L61.6562 3.375C61.2396 3.125 60.9896 3 60.9062 3C60.8646 2.95833 60.8229 2.91667 60.7812 2.875C60.1979 2.875 59.7188 2.89583 59.3438 2.9375C59.0104 2.9375 58.6146 3 58.1562 3.125C57.7396 3.29167 57.4479 3.41667 57.2812 3.5C57.0312 3.79167 56.9062 4 56.9062 4.125C56.6146 4.41667 56.4479 4.58333 56.4062 4.625C56.1146 4.70833 55.9479 4.79167 55.9062 4.875C55.9062 4.91667 55.8854 4.97917 55.8438 5.0625C55.5104 5.3125 55.3229 5.45833 55.2812 5.5C55.2396 5.54167 55.1771 5.60417 55.0938 5.6875L54.6562 6.375L54.2188 6.9375C53.8438 7.35417 53.6354 7.625 53.5938 7.75L53.2812 8.375C53.1979 8.45833 53.1146 8.5625 53.0312 8.6875C52.9896 8.77083 52.9271 8.85417 52.8438 8.9375C52.8021 9.10417 52.7604 9.25 52.7188 9.375C52.6771 9.45833 52.6354 9.54167 52.5938 9.625L52.1562 10.25C52.0729 10.5833 52.0312 10.8333 52.0312 11C51.9479 11.125 51.8854 11.25 51.8438 11.375C51.8021 11.5 51.7396 11.6042 51.6562 11.6875L51.2188 12.25C51.1354 12.7083 51.0938 12.9375 51.0938 12.9375C50.8854 13.3958 50.7812 13.6875 50.7812 13.8125C50.5729 14.1042 50.4479 14.2708 50.4062 14.3125C50.4062 14.3542 50.4062 14.3958 50.4062 14.4375C50.0312 14.6875 49.7604 14.9375 49.5938 15.1875C49.5521 15.5208 49.5729 15.7708 49.6562 15.9375C49.4896 16.3542 49.3854 16.6042 49.3438 16.6875L48.7812 17.25C48.6979 17.625 48.6562 17.8958 48.6562 18.0625C48.4896 18.5625 48.3854 18.8333 48.3438 18.875C48.3438 18.9167 48.3438 18.9583 48.3438 19C48.1354 19.375 47.9688 19.625 47.8438 19.75C47.8438 19.875 47.8229 19.9792 47.7812 20.0625C47.7396 20.1458 47.6771 20.2917 47.5938 20.5C47.4271 20.9167 47.3438 21.1667 47.3438 21.25L46.8438 21.875C46.9271 22.6667 46.8438 23.1875 46.5938 23.4375C46.5521 23.8542 46.5104 24.0833 46.4688 24.125C46.1771 24.5417 46.0312 24.7917 46.0312 24.875L46.2188 25.625C46.0521 26.1667 45.9688 26.5208 45.9688 26.6875C45.9688 26.8125 45.9688 26.9167 45.9688 27L45.7812 27.6875C45.6146 28.1042 45.5312 28.4167 45.5312 28.625C45.5312 28.8333 45.5104 29.0625 45.4688 29.3125C45.3854 29.5625 45.3229 29.7708 45.2812 29.9375C45.2396 30.1042 45.1771 30.25 45.0938 30.375C44.9688 30.9167 44.9062 31.25 44.9062 31.375L44.5938 32C44.5104 32.4583 44.4479 32.75 44.4062 32.875C44.4479 33.2917 44.4688 33.6042 44.4688 33.8125L44.2188 34.625C44.2188 35.125 44.2188 35.3958 44.2188 35.4375C44.2604 35.4792 44.2812 35.5208 44.2812 35.5625C44.2812 35.7708 44.2812 35.9792 44.2812 36.1875C44.2812 36.3542 44.2604 36.5625 44.2188 36.8125C44.2188 36.9375 44.1979 37.0625 44.1562 37.1875C44.1562 37.3125 44.1562 37.4375 44.1562 37.5625C44.1146 37.8958 44.0938 38.1458 44.0938 38.3125C44.0104 38.8958 43.9688 39.3125 43.9688 39.5625C44.0521 40.0208 44.0729 40.3125 44.0312 40.4375C43.9896 40.5208 43.9688 40.625 43.9688 40.75C43.9688 40.9583 43.9896 41.125 44.0312 41.25C44.0729 41.375 44.0938 41.4792 44.0938 41.5625L44.0312 42.375V43.1875C43.9062 43.5625 43.8854 43.7917 43.9688 43.875C43.9688 44.4167 44.0104 44.7292 44.0938 44.8125C44.0104 45.3125 44.0104 45.6042 44.0938 45.6875C44.0521 46.1042 44.0521 46.3333 44.0938 46.375C44.1354 46.7917 44.1771 47.0208 44.2188 47.0625C44.1354 47.5625 44.1354 47.9375 44.2188 48.1875C44.1354 48.5625 44.1354 48.7917 44.2188 48.875L44.2812 49.6875C44.2396 50.1458 44.2812 50.3958 44.4062 50.4375C44.5312 50.9375 44.5938 51.3333 44.5938 51.625C44.6354 51.8333 44.6354 52.0208 44.5938 52.1875C44.5521 52.3125 44.5104 52.3958 44.4688 52.4375L44.6562 53.125C44.6979 53.5833 44.7188 53.8125 44.7188 53.8125L44.6562 54.5L44.9062 55.25C44.9062 55.5833 44.8854 55.7917 44.8438 55.875C44.8438 55.9167 44.8438 55.9792 44.8438 56.0625C44.9271 56.5208 45.0104 56.7917 45.0938 56.875L45.1562 57.625C45.3229 57.9583 45.4062 58.125 45.4062 58.125C45.4479 58.1667 45.4688 58.2083 45.4688 58.25C45.5104 58.3333 45.5312 58.4792 45.5312 58.6875C45.5312 58.9375 45.5729 59.1875 45.6562 59.4375C45.6562 59.8958 45.6979 60.25 45.7812 60.5C45.7812 60.9583 45.8021 61.2292 45.8438 61.3125C45.9271 61.8125 45.9688 62.0625 45.9688 62.0625C46.0104 62.1042 46.0312 62.1458 46.0312 62.1875L46.0938 62.875L46.1562 63.625C46.2812 64 46.3229 64.1875 46.2812 64.1875C46.2812 64.2292 46.2812 64.2708 46.2812 64.3125C46.2812 64.5208 46.3021 64.7083 46.3438 64.875C46.3854 65.0417 46.4062 65.1667 46.4062 65.25L46.6562 66.25C46.7812 66.5 46.8646 66.7292 46.9062 66.9375C46.9479 67.0208 46.9688 67.1042 46.9688 67.1875C47.0104 67.3125 47.0521 67.4792 47.0938 67.6875L47.3438 68.375C47.3438 68.7083 47.4062 69 47.5312 69.25C47.6562 69.5417 47.7812 69.7917 47.9062 70L48.3438 70.6875C48.2604 71.0625 48.2188 71.2917 48.2188 71.375C47.8854 71.7083 47.7188 72.0208 47.7188 72.3125C47.3438 72.4375 47.1146 72.5 47.0312 72.5C46.6146 72.6667 46.4062 72.7708 46.4062 72.8125C46.1562 72.8125 45.9479 72.8333 45.7812 72.875C45.6562 72.9583 45.5521 73.0417 45.4688 73.125L44.6562 73.1875L44.5938 72.5L44.4062 71.75C44.3229 71.375 44.2812 71.1458 44.2812 71.0625C44.1562 70.5208 44.0521 70.2083 43.9688 70.125C43.9271 69.8333 43.8854 69.6042 43.8438 69.4375C43.7604 69.2708 43.6771 69.125 43.5938 69C43.5104 68.875 43.4479 68.7708 43.4062 68.6875C43.2396 68.2708 43.1562 68.0417 43.1562 68C42.9896 67.6667 42.9062 67.4375 42.9062 67.3125C42.9062 67.2292 42.8854 67.125 42.8438 67C42.5104 66.7917 42.3438 66.5 42.3438 66.125C42.2604 65.75 42.1771 65.5417 42.0938 65.5C42.0104 65.4583 41.9479 65.4167 41.9062 65.375C41.7396 64.9167 41.6562 64.6042 41.6562 64.4375C41.4896 64.2292 41.3854 64.0833 41.3438 64C41.3021 63.9167 41.2396 63.8333 41.1562 63.75C41.1146 63.3333 41.0729 63.0625 41.0312 62.9375C40.9896 62.8542 40.9271 62.7708 40.8438 62.6875L40.5938 61.9375C40.4688 61.6042 40.3646 61.3542 40.2812 61.1875C40.2396 61.0625 40.1979 60.9375 40.1562 60.8125C39.9062 60.3542 39.7604 60.0833 39.7188 60C39.6771 59.9167 39.6354 59.8333 39.5938 59.75L39.4688 59C39.3854 58.9167 39.2604 58.6667 39.0938 58.25C39.0104 57.9583 38.8646 57.7292 38.6562 57.5625C38.6146 57.3542 38.5521 57.1667 38.4688 57C38.4271 56.875 38.3646 56.7292 38.2812 56.5625C38.2396 56.4792 38.1979 56.375 38.1562 56.25C38.1146 56.0833 38.0521 55.9375 37.9688 55.8125C37.9271 55.7292 37.8854 55.625 37.8438 55.5C37.8438 55.3333 37.8021 55.1458 37.7188 54.9375L37.4688 54.25L37.5938 53.5625L37.0938 52.9375L36.7188 52.1875C36.8021 51.8125 36.7812 51.5833 36.6562 51.5C36.2396 51.25 36.0312 51.125 36.0312 51.125C36.0312 51.0833 36.0104 51.0417 35.9688 51C35.9688 50.6667 35.9479 50.4792 35.9062 50.4375C35.8646 50.3958 35.8229 50.3333 35.7812 50.25L35.2188 49.5C35.0521 49.0833 34.9896 48.8333 35.0312 48.75C34.7812 48.25 34.6354 47.9792 34.5938 47.9375C34.5521 47.4792 34.4896 47.2292 34.4062 47.1875C34.3646 47.1458 34.3229 47.1042 34.2812 47.0625C34.1979 46.6458 34.1146 46.3958 34.0312 46.3125C33.9062 46.0208 33.7812 45.8333 33.6562 45.75C33.5729 45.6667 33.4896 45.5833 33.4062 45.5C33.4062 45.1667 33.3229 44.875 33.1562 44.625C33.1562 44.0833 33.1146 43.7292 33.0312 43.5625C32.8229 43.1458 32.6771 42.9375 32.5938 42.9375L32.4688 42.25L32.1562 41.9375ZM70.0938 38.25C70.0104 38.75 69.9688 39.0208 69.9688 39.0625C70.0104 39.1042 70.0312 39.1458 70.0312 39.1875C69.9896 39.5208 69.9688 39.75 69.9688 39.875C70.0104 40 70.0104 40.125 69.9688 40.25C69.9271 40.3333 69.8438 40.4375 69.7188 40.5625C69.6354 40.6458 69.6354 40.7708 69.7188 40.9375C69.4688 41.2708 69.3854 41.4583 69.4688 41.5C69.5521 41.5417 69.5938 41.5833 69.5938 41.625C69.6354 42.0833 69.6354 42.375 69.5938 42.5C69.5521 42.625 69.5312 42.7292 69.5312 42.8125C69.5312 43.3542 69.4896 43.6667 69.4062 43.75C69.4479 44 69.4271 44.2292 69.3438 44.4375C69.3021 44.6458 69.3438 44.8125 69.4688 44.9375C69.5104 45.3958 69.5104 45.6875 69.4688 45.8125C69.4688 45.8958 69.5104 46 69.5938 46.125C69.4271 46.625 69.3646 46.9167 69.4062 47C69.5729 47.4583 69.6562 47.7917 69.6562 48C69.6562 48.1667 69.7188 48.3333 69.8438 48.5C69.7188 48.8333 69.6979 49.1458 69.7812 49.4375C69.8646 49.7292 69.9271 50.0417 69.9688 50.375C69.9271 50.8333 69.9271 51.0833 69.9688 51.125C70.0104 51.125 70.0312 51.1667 70.0312 51.25C70.1146 51.4583 70.1562 51.7083 70.1562 52C70.1562 52.25 70.2188 52.4583 70.3438 52.625C70.3438 53.2083 70.4896 53.5625 70.7812 53.6875C70.7396 53.9792 70.7604 54.1458 70.8438 54.1875C70.9271 54.2292 70.9688 54.2917 70.9688 54.375C70.8854 54.5833 70.9062 54.75 71.0312 54.875C71.1562 54.9583 71.1562 55.0625 71.0312 55.1875C71.1979 55.2708 71.3646 55.3333 71.5312 55.375C71.6979 55.375 71.8229 55.4375 71.9062 55.5625C72.1562 55.5625 72.3646 55.6042 72.5312 55.6875C72.7396 55.7708 72.9479 55.75 73.1562 55.625C73.4896 55.4583 73.6979 55.2917 73.7812 55.125C74.0729 55.125 74.2812 55.0833 74.4062 55C74.5729 54.9167 74.7396 54.8333 74.9062 54.75C75.0312 54.5833 75.1354 54.5 75.2188 54.5C75.3021 54.4583 75.4062 54.4375 75.5312 54.4375C75.4479 54.6042 75.3646 54.75 75.2812 54.875C75.1979 55 75.1979 55.1875 75.2812 55.4375C75.0729 55.5208 74.8646 55.625 74.6562 55.75C74.4896 55.8333 74.3438 55.9792 74.2188 56.1875C73.8021 56.5208 73.5521 56.7292 73.4688 56.8125C73.3854 56.8958 73.2604 56.9375 73.0938 56.9375C72.6771 57.3125 72.4688 57.5833 72.4688 57.75C72.3438 57.8333 72.1979 57.875 72.0312 57.875C71.9062 57.9167 71.8021 57.9792 71.7188 58.0625C71.4688 58.3542 71.3021 58.5 71.2188 58.5C71.1771 58.5 71.1354 58.5625 71.0938 58.6875C70.5104 58.8125 70.1146 58.8542 69.9062 58.8125C69.7396 58.8125 69.5521 58.8125 69.3438 58.8125C68.9271 58.7292 68.6562 58.6042 68.5312 58.4375C68.4062 58.3125 68.2604 58.3125 68.0938 58.4375C68.0104 58.1458 67.8021 58.0208 67.4688 58.0625C67.2604 57.8125 67.1146 57.6042 67.0312 57.4375C66.9896 57.3125 66.8854 57.2083 66.7188 57.125C66.6771 57.0417 66.6562 56.9375 66.6562 56.8125C66.6562 56.6458 66.6354 56.5208 66.5938 56.4375C66.5521 56.3542 66.4896 56.2292 66.4062 56.0625C66.3646 55.8542 66.3646 55.6667 66.4062 55.5C66.1562 54.7917 65.9688 54.2917 65.8438 54C65.7604 53.7083 65.7604 53.4375 65.8438 53.1875C65.7604 52.8542 65.6979 52.6458 65.6562 52.5625C65.6146 52.4375 65.5938 52.3542 65.5938 52.3125C65.5938 52.0625 65.5729 51.8542 65.5312 51.6875C65.5312 51.5208 65.5312 51.3125 65.5312 51.0625C65.5729 50.5208 65.5521 50.1667 65.4688 50C65.4271 49.7917 65.4062 49.5833 65.4062 49.375C65.4479 48.9167 65.4479 48.6667 65.4062 48.625C65.4062 48.5833 65.4062 48.5208 65.4062 48.4375C65.4479 48.0625 65.4479 47.8333 65.4062 47.75C65.3646 47.6667 65.3438 47.5833 65.3438 47.5C64.8854 47.75 64.5938 47.9375 64.4688 48.0625C64.3854 48.1458 64.3021 48.25 64.2188 48.375C64.1354 48.625 64.0312 48.7917 63.9062 48.875C63.7812 48.9167 63.6771 48.9792 63.5938 49.0625C63.3438 49.2708 63.1979 49.4375 63.1562 49.5625C63.1562 49.6875 63.1146 49.7917 63.0312 49.875C62.7812 50.0417 62.6146 50.1667 62.5312 50.25C62.4896 50.2917 62.4896 50.3958 62.5312 50.5625C62.3646 50.6458 62.2396 50.75 62.1562 50.875C62.0729 51 61.9271 51.1042 61.7188 51.1875C61.5104 51.4792 61.3021 51.7292 61.0938 51.9375C60.8854 52.1458 60.6979 52.2917 60.5312 52.375C60.4062 52.4167 60.3021 52.5208 60.2188 52.6875C59.8854 52.8958 59.6771 53.0625 59.5938 53.1875C59.5521 53.3125 59.4688 53.4167 59.3438 53.5C58.9688 53.7083 58.7604 53.8542 58.7188 53.9375C58.6771 53.9792 58.6146 53.9792 58.5312 53.9375C57.9896 54.3958 57.7188 54.6875 57.7188 54.8125C57.3021 54.9792 57.0521 55.125 56.9688 55.25C56.8854 55.375 56.7188 55.4167 56.4688 55.375C56.0521 55.625 55.6354 55.7292 55.2188 55.6875C54.8021 55.6042 54.4688 55.5208 54.2188 55.4375C54.0521 55.3542 53.9271 55.2917 53.8438 55.25C53.7604 55.2083 53.6354 55.1667 53.4688 55.125C53.0938 54.9167 52.8646 54.75 52.7812 54.625C52.6979 54.4583 52.5521 54.3333 52.3438 54.25C52.4688 54.0417 52.4688 53.8542 52.3438 53.6875C52.2188 53.4792 52.1146 53.3125 52.0312 53.1875C52.0729 52.9792 52.0729 52.8333 52.0312 52.75C51.9896 52.625 51.9479 52.5208 51.9062 52.4375C51.8646 51.9375 51.8646 51.6667 51.9062 51.625C51.9479 51.5833 51.9688 51.5417 51.9688 51.5C51.9688 51.3333 51.9479 51.1875 51.9062 51.0625C51.8646 50.8958 51.8646 50.7292 51.9062 50.5625C52.0729 50.1042 52.1354 49.7708 52.0938 49.5625C52.0938 49.3542 52.1354 49.1667 52.2188 49C52.3438 48.7917 52.3854 48.6458 52.3438 48.5625C52.3438 48.4375 52.3646 48.3333 52.4062 48.25C52.6146 47.9167 52.7188 47.7083 52.7188 47.625C52.8021 47.1667 52.8646 46.9375 52.9062 46.9375C52.9896 46.6458 53.0729 46.4792 53.1562 46.4375C53.2812 46.3542 53.3021 46.2292 53.2188 46.0625C53.3854 45.7708 53.4688 45.5833 53.4688 45.5C53.5104 45.4167 53.5521 45.3333 53.5938 45.25C53.7604 45.2083 53.8854 45.1042 53.9688 44.9375C54.0521 44.7708 54.0521 44.5833 53.9688 44.375C54.3438 44.2083 54.5312 44.0625 54.5312 43.9375C54.5312 43.7708 54.5729 43.625 54.6562 43.5C54.9479 43.2917 55.2188 43.125 55.4688 43C55.7188 42.8333 55.8438 42.5625 55.8438 42.1875C56.0938 41.8958 56.2812 41.7292 56.4062 41.6875C56.5729 41.6042 56.6771 41.4583 56.7188 41.25C56.8438 41.1667 56.9479 41.0833 57.0312 41C57.1146 40.875 57.1979 40.7708 57.2812 40.6875C57.4896 40.4792 57.5938 40.3542 57.5938 40.3125C57.5938 40.2708 57.6354 40.2083 57.7188 40.125C58.1771 39.875 58.4479 39.7083 58.5312 39.625C58.8229 39.2917 59.0104 39.0833 59.0938 39C59.1771 38.9167 59.3021 38.8542 59.4688 38.8125C59.8021 38.5208 60.1354 38.2917 60.4688 38.125C60.6354 38.0417 60.7604 38 60.8438 38C60.9688 37.9583 61.0729 37.875 61.1562 37.75C61.5312 37.6667 61.8646 37.5833 62.1562 37.5C62.7396 37.2083 63.1771 37.1042 63.4688 37.1875C63.7604 37.2292 64.1146 37.2292 64.5312 37.1875C64.9479 37.3542 65.1979 37.4792 65.2812 37.5625C65.4062 37.6458 65.5104 37.7083 65.5938 37.75C65.7188 37.75 65.8646 37.7292 66.0312 37.6875C66.1979 37.6458 66.3438 37.6667 66.4688 37.75C66.8854 38.0833 67.1146 38.25 67.1562 38.25C67.2396 38.25 67.3229 38.2917 67.4062 38.375C67.9062 38.625 68.2812 38.6667 68.5312 38.5C68.7812 38.3333 69.0104 38.1875 69.2188 38.0625C69.3854 38.1042 69.5312 38.125 69.6562 38.125C69.8229 38.0833 69.9688 38.125 70.0938 38.25ZM62.4062 41C62.1979 41 62.0521 40.9583 61.9688 40.875C61.9271 40.7917 61.8646 40.7292 61.7812 40.6875C61.4062 40.6042 61.0938 40.625 60.8438 40.75C60.5938 40.875 60.3021 40.9375 59.9688 40.9375C59.5521 41.3125 59.3438 41.5208 59.3438 41.5625C59.0938 41.8958 58.9062 42.125 58.7812 42.25C58.6562 42.375 58.6354 42.5417 58.7188 42.75C58.2188 42.9583 57.9688 43.2083 57.9688 43.5C57.9688 43.7917 57.8229 43.9792 57.5312 44.0625C57.4896 44.2708 57.4271 44.4583 57.3438 44.625C57.2604 44.7917 57.1979 44.9792 57.1562 45.1875C57.0312 45.6875 56.9688 45.9583 56.9688 46C57.0104 46.0417 57.0104 46.1042 56.9688 46.1875C56.8854 46.3958 56.7812 46.5833 56.6562 46.75C56.5729 46.9167 56.5729 47.0625 56.6562 47.1875C56.5312 47.6458 56.4479 47.9583 56.4062 48.125C56.3646 48.2917 56.3021 48.4792 56.2188 48.6875C56.2604 49.0625 56.2812 49.3542 56.2812 49.5625C56.2812 49.7708 56.3021 50 56.3438 50.25C56.4271 50.5 56.4688 50.7292 56.4688 50.9375C56.8021 51.2708 56.9688 51.4375 56.9688 51.4375C57.0104 51.4375 57.0312 51.4583 57.0312 51.5C57.6146 51.5833 57.9271 51.6458 57.9688 51.6875C58.0521 51.7292 58.1771 51.7917 58.3438 51.875C58.5521 51.6667 58.7604 51.5 58.9688 51.375C59.1771 51.25 59.3229 51.0208 59.4062 50.6875C59.8229 50.3125 60.0729 50.0625 60.1562 49.9375C60.2812 49.7708 60.4479 49.6458 60.6562 49.5625C61.0729 49.0208 61.2812 48.75 61.2812 48.75C61.6146 48.5 61.8021 48.2917 61.8438 48.125C61.9271 47.9583 62.0104 47.7292 62.0938 47.4375C62.3021 47.2708 62.4271 47.1667 62.4688 47.125C62.5521 47.0417 62.5729 46.9167 62.5312 46.75C62.6146 46.5833 62.6979 46.4375 62.7812 46.3125C62.9062 46.1458 62.9688 45.9583 62.9688 45.75C63.1771 45.6667 63.3021 45.5625 63.3438 45.4375C63.4271 45.2708 63.5729 45.1875 63.7812 45.1875C63.8229 44.7708 63.8854 44.5417 63.9688 44.5C64.0521 44.4167 64.1771 44.375 64.3438 44.375C64.4271 43.9167 64.5104 43.5833 64.5938 43.375C64.6771 43.1667 64.7604 42.9583 64.8438 42.75C64.5521 42.4167 64.4062 42.1667 64.4062 42C64.0729 41.7917 63.8646 41.6875 63.7812 41.6875C63.7396 41.6458 63.6979 41.5833 63.6562 41.5C63.4896 41.4167 63.3229 41.3542 63.1562 41.3125C63.0312 41.2292 62.8854 41.1667 62.7188 41.125L62.4062 41ZM77.9062 40.4375C77.9896 40.2292 78.0729 40.0417 78.1562 39.875C78.2812 39.6667 78.4479 39.5208 78.6562 39.4375C78.6979 39.1875 78.8021 39.0208 78.9688 38.9375C79.1354 38.8542 79.2396 38.6875 79.2812 38.4375C79.5729 38.2708 79.7812 38.0625 79.9062 37.8125C80.2812 37.5625 80.4688 37.4583 80.4688 37.5C80.4688 37.5 80.5104 37.5 80.5938 37.5C80.9688 37.2083 81.1979 37 81.2812 36.875C81.3646 36.75 81.4688 36.6458 81.5938 36.5625C81.8854 36.3958 82.0729 36.2708 82.1562 36.1875C82.2396 36.1042 82.3229 36.0208 82.4062 35.9375C82.7396 35.7708 82.9271 35.6875 82.9688 35.6875C83.0521 35.6875 83.1354 35.6667 83.2188 35.625C83.6354 35.3333 83.8854 35.1667 83.9688 35.125C84.0521 35.0833 84.1146 35 84.1562 34.875C84.9479 34.6667 85.5312 34.4583 85.9062 34.25C86.1979 34.1667 86.4062 34.1458 86.5312 34.1875C86.6562 34.1875 86.7812 34.1667 86.9062 34.125C87.5312 34.0417 87.9271 34.0417 88.0938 34.125C88.3021 34.2083 88.5104 34.25 88.7188 34.25C89.0521 34.25 89.2604 34.3125 89.3438 34.4375C89.4271 34.5208 89.5312 34.5625 89.6562 34.5625C89.7812 35.0208 89.9062 35.3125 90.0312 35.4375C90.1979 35.5208 90.4271 35.5833 90.7188 35.625C91.2188 35.9583 91.4688 36.1875 91.4688 36.3125C91.7604 36.4375 92.0104 36.5833 92.2188 36.75C92.4688 36.9167 92.6562 37.1667 92.7812 37.5C93.1146 37.7083 93.3229 37.8542 93.4062 37.9375C93.4896 38.0208 93.5521 38.125 93.5938 38.25C93.9688 38.6667 94.1771 38.9583 94.2188 39.125C94.3021 39.2917 94.4062 39.4167 94.5312 39.5C94.6146 39.8333 94.6771 40.1458 94.7188 40.4375C94.7604 40.6875 94.7396 40.9792 94.6562 41.3125C94.7812 42.0208 94.6562 42.5625 94.2812 42.9375C94.1979 43.4375 94.1979 43.7083 94.2812 43.75C94.3646 43.75 94.3854 43.7917 94.3438 43.875C94.2604 44.1667 94.1979 44.375 94.1562 44.5C94.1146 44.625 94.0729 44.75 94.0312 44.875C93.9062 45.2917 93.8646 45.5417 93.9062 45.625C93.9479 45.6667 93.9479 45.7292 93.9062 45.8125C93.6146 46.2292 93.4479 46.4792 93.4062 46.5625C93.3646 46.6458 93.3438 46.75 93.3438 46.875C92.9271 47.125 92.7188 47.2708 92.7188 47.3125C92.7604 47.3542 92.7812 47.4583 92.7812 47.625C92.4062 48.0833 92.1979 48.375 92.1562 48.5C92.1562 48.5833 92.0729 48.6458 91.9062 48.6875C91.7396 48.9375 91.5312 49.1875 91.2812 49.4375C90.9062 49.6875 90.6562 49.8542 90.5312 49.9375C90.4479 49.9792 90.4062 50.0625 90.4062 50.1875C90.1562 50.3958 90.0104 50.5417 89.9688 50.625C89.9271 50.7083 89.8854 50.7917 89.8438 50.875C89.4271 51 89.2188 51.0833 89.2188 51.125C89.2188 51.1667 89.1979 51.1875 89.1562 51.1875C88.7812 51.3542 88.5312 51.5 88.4062 51.625C88.3229 51.7083 88.2188 51.7917 88.0938 51.875C87.8438 51.875 87.6354 51.9583 87.4688 52.125C87.3021 52.25 87.1146 52.3542 86.9062 52.4375C86.7812 52.5208 86.6562 52.5833 86.5312 52.625C86.4062 52.6667 86.3021 52.75 86.2188 52.875C85.5521 53.0833 85.0104 53.3125 84.5938 53.5625C84.1771 53.8125 83.7188 53.8542 83.2188 53.6875C82.6771 53.8125 82.3854 53.8542 82.3438 53.8125C82.3021 53.7708 82.2396 53.7292 82.1562 53.6875C81.7812 53.8542 81.5312 53.9375 81.4062 53.9375C81.2812 53.9375 81.1146 53.8958 80.9062 53.8125C80.4896 53.6875 80.1979 53.625 80.0312 53.625C79.6146 53.375 79.3229 53.2292 79.1562 53.1875C79.0312 53.1042 78.9062 53.0208 78.7812 52.9375C78.6562 52.8542 78.5104 52.7708 78.3438 52.6875C78.2188 52.5625 78.1562 52.3958 78.1562 52.1875C77.8229 51.8542 77.6562 51.6875 77.6562 51.6875C77.4479 51.1458 77.2604 50.8542 77.0938 50.8125C77.0104 50.3958 76.9271 50.1458 76.8438 50.0625C76.7188 49.7292 76.6354 49.5625 76.5938 49.5625C76.5938 49.5208 76.5729 49.4375 76.5312 49.3125C76.5312 49.2292 76.5104 49.1042 76.4688 48.9375C76.4271 48.7292 76.4062 48.5625 76.4062 48.4375C76.2812 47.6042 76.2188 47.0208 76.2188 46.6875C76.2604 46.3542 76.2396 46.0208 76.1562 45.6875C76.2396 45.6042 76.2604 45.5208 76.2188 45.4375C76.2188 45.3125 76.2396 45.1458 76.2812 44.9375C76.3229 44.5625 76.3646 44.3542 76.4062 44.3125C76.4479 44.2292 76.4688 44.1458 76.4688 44.0625C76.5104 43.6875 76.5938 43.3333 76.7188 43C76.7604 42.875 76.8021 42.7708 76.8438 42.6875C76.9271 42.5625 76.9479 42.4167 76.9062 42.25C77.1562 42.125 77.3021 41.9375 77.3438 41.6875C77.4271 41.3958 77.5312 41.1458 77.6562 40.9375L77.9062 40.4375ZM87.0938 38.8125C86.8438 38.6875 86.6979 38.6042 86.6562 38.5625C86.6146 38.4792 86.5521 38.4167 86.4688 38.375C86.0104 38.25 85.7396 38.2292 85.6562 38.3125C85.6146 38.3542 85.5521 38.3542 85.4688 38.3125C85.2604 38.3125 85.0521 38.2708 84.8438 38.1875C84.6354 38.1042 84.4688 38.1667 84.3438 38.375C83.8854 38.4167 83.6354 38.4167 83.5938 38.375C83.4688 38.4583 83.3229 38.5208 83.1562 38.5625C83.0312 38.6042 82.9271 38.6667 82.8438 38.75C82.7188 39 82.6146 39.1667 82.5312 39.25C82.4479 39.2917 82.4271 39.375 82.4688 39.5C82.3438 39.6667 82.1562 39.875 81.9062 40.125C81.7812 40.7917 81.6562 41.2292 81.5312 41.4375C81.4062 41.6042 81.2604 41.75 81.0938 41.875C81.1354 42.0833 81.1354 42.3125 81.0938 42.5625C81.0938 42.7708 81.0312 42.9375 80.9062 43.0625C80.7396 43.6875 80.6771 44.0625 80.7188 44.1875C80.8021 44.2708 80.8229 44.4167 80.7812 44.625C80.6146 45.1667 80.5938 45.4375 80.7188 45.4375C80.8438 45.3958 80.8854 45.4375 80.8438 45.5625C80.8438 46.0208 80.8646 46.2708 80.9062 46.3125C80.9896 46.3125 81.0312 46.3542 81.0312 46.4375L81.2188 47.1875C81.3854 47.5208 81.4479 47.7083 81.4062 47.75C81.3646 47.7917 81.3438 47.8542 81.3438 47.9375C81.5938 48.3125 81.7396 48.5417 81.7812 48.625C81.8646 48.7083 81.9479 48.7917 82.0312 48.875C82.0729 49.2083 82.1146 49.4167 82.1562 49.5C82.2396 49.5417 82.2396 49.6042 82.1562 49.6875C82.3646 49.7292 82.5312 49.7708 82.6562 49.8125C82.8229 49.8542 82.9479 49.9792 83.0312 50.1875C83.3646 50.2708 83.5521 50.4167 83.5938 50.625C84.2604 50.7917 84.6979 50.875 84.9062 50.875C85.1146 50.8333 85.3854 50.7708 85.7188 50.6875C86.3438 50.7292 86.7604 50.7083 86.9688 50.625C87.1771 50.5 87.3229 50.3542 87.4062 50.1875C87.5729 50.0208 87.6979 49.9167 87.7812 49.875C87.8646 49.7917 87.9479 49.7083 88.0312 49.625C88.2396 49.25 88.4062 48.9792 88.5312 48.8125C88.6979 48.6042 88.7604 48.375 88.7188 48.125C89.3854 47.25 89.6979 46.3958 89.6562 45.5625C89.8229 45.0625 89.8854 44.7917 89.8438 44.75C89.8021 44.6667 89.7812 44.5833 89.7812 44.5C89.9479 44.25 89.9896 43.9583 89.9062 43.625C89.8646 43.25 89.8021 42.9375 89.7188 42.6875C89.6354 42.2292 89.5938 41.9792 89.5938 41.9375C89.6354 41.8542 89.6562 41.7917 89.6562 41.75C89.3646 41.3333 89.1979 41.1042 89.1562 41.0625C88.9479 40.6458 88.7604 40.3542 88.5938 40.1875C88.4271 40.0208 88.2812 39.8125 88.1562 39.5625C87.9062 39.3542 87.7604 39.2292 87.7188 39.1875C87.6771 39.1458 87.6354 39.0833 87.5938 39L87.0938 38.8125ZM96.5938 38.4375C96.0104 38.7708 95.6146 39 95.4062 39.125C95.1562 39.25 94.8646 39.3333 94.5312 39.375C94.5312 39.2083 94.4479 39.125 94.2812 39.125C94.1146 39.125 93.9896 39.0833 93.9062 39C94.0312 38.625 94.1146 38.4167 94.1562 38.375C94.1979 38.2917 94.2188 38.2083 94.2188 38.125C94.3021 38.0417 94.4062 37.9792 94.5312 37.9375C94.6562 37.8542 94.7188 37.7292 94.7188 37.5625C95.2188 37.2708 95.5312 37.0833 95.6562 37C95.7396 36.875 95.8438 36.7708 95.9688 36.6875C96.2188 36.4375 96.3646 36.3125 96.4062 36.3125C96.4479 36.2708 96.5104 36.25 96.5938 36.25C97.0938 36 97.3854 35.8125 97.4688 35.6875C97.5938 35.5625 97.7812 35.5 98.0312 35.5C98.1562 35.375 98.2812 35.2917 98.4062 35.25C98.5729 35.1667 98.6979 35.0625 98.7812 34.9375C99.3229 34.8125 99.8229 34.625 100.281 34.375C100.406 34.2917 100.573 34.2708 100.781 34.3125C100.99 34.3542 101.135 34.3333 101.219 34.25C101.385 34.3333 101.552 34.4167 101.719 34.5C101.885 34.5833 102.073 34.625 102.281 34.625C102.573 34.875 102.948 35.0625 103.406 35.1875C103.49 35.3958 103.615 35.5625 103.781 35.6875C103.948 35.7708 104.115 35.8542 104.281 35.9375C104.365 36.3958 104.448 36.6667 104.531 36.75C104.656 36.8333 104.76 36.9792 104.844 37.1875C104.885 37.4792 104.927 37.6875 104.969 37.8125C105.01 37.8958 105.052 37.9792 105.094 38.0625C104.969 38.3958 104.948 38.6042 105.031 38.6875C105.115 38.7292 105.177 38.8125 105.219 38.9375C105.177 39.4792 105.24 39.7917 105.406 39.875C105.531 40.1667 105.573 40.3333 105.531 40.375C105.49 40.4167 105.469 40.4792 105.469 40.5625C105.552 40.8125 105.573 41 105.531 41.125C105.49 41.25 105.49 41.3958 105.531 41.5625C105.74 42.1042 105.823 42.4167 105.781 42.5C105.74 42.5833 105.719 42.6875 105.719 42.8125C106.135 42.8542 106.344 42.6458 106.344 42.1875C106.469 42.1042 106.552 42 106.594 41.875C106.677 41.75 106.802 41.6458 106.969 41.5625C107.094 41.0208 107.156 40.75 107.156 40.75C107.406 40.3333 107.552 40.1042 107.594 40.0625C107.677 39.9792 107.76 39.9167 107.844 39.875C107.844 39.6667 107.885 39.5417 107.969 39.5C108.094 39.4583 108.156 39.3333 108.156 39.125C108.448 38.8333 108.677 38.625 108.844 38.5C109.01 38.375 109.115 38.2083 109.156 38C109.323 37.9583 109.573 37.8542 109.906 37.6875C110.156 37.4375 110.323 37.2708 110.406 37.1875C110.49 37.0625 110.573 36.9375 110.656 36.8125C110.906 36.6875 111.073 36.5625 111.156 36.4375C111.24 36.3125 111.323 36.1875 111.406 36.0625C111.698 36.2292 111.969 36.25 112.219 36.125C112.719 35.8333 113.01 35.6458 113.094 35.5625C113.177 35.4792 113.323 35.4583 113.531 35.5C113.656 35.4167 113.823 35.3542 114.031 35.3125C114.24 35.2292 114.448 35.1458 114.656 35.0625C115.115 34.9375 115.365 34.8542 115.406 34.8125C115.49 34.7292 115.573 34.6875 115.656 34.6875C116.281 34.6458 116.76 34.6667 117.094 34.75C117.427 34.8333 117.781 34.8542 118.156 34.8125C118.281 34.8958 118.406 34.9792 118.531 35.0625C118.656 35.1458 118.781 35.2292 118.906 35.3125C119.031 35.9375 119.156 36.2917 119.281 36.375C119.406 36.4167 119.531 36.4792 119.656 36.5625C119.781 37.0208 119.906 37.3542 120.031 37.5625C120.156 37.7708 120.323 37.9583 120.531 38.125C120.49 38.2917 120.51 38.4167 120.594 38.5C120.677 38.5833 120.719 38.7083 120.719 38.875C120.802 39.0833 120.844 39.2917 120.844 39.5C120.885 39.7083 120.927 39.875 120.969 40C121.177 39.9583 121.344 39.8333 121.469 39.625C121.594 39.375 121.635 39.1458 121.594 38.9375C121.927 38.5208 122.219 38.2083 122.469 38C122.719 37.7917 122.865 37.4792 122.906 37.0625C123.24 36.6458 123.448 36.4167 123.531 36.375C123.615 36.2917 123.656 36.1667 123.656 36C123.823 35.9167 123.948 35.8542 124.031 35.8125C124.156 35.7292 124.281 35.6458 124.406 35.5625C124.573 35.3125 124.677 35.1458 124.719 35.0625C124.76 34.9792 124.823 34.9167 124.906 34.875C125.281 34.5833 125.49 34.4375 125.531 34.4375C125.573 34.4375 125.635 34.4167 125.719 34.375C125.844 34.1667 125.969 34.0417 126.094 34C126.219 33.9583 126.323 33.875 126.406 33.75C126.865 33.5417 127.094 33.375 127.094 33.25C127.094 33.0833 127.135 32.9583 127.219 32.875C127.427 32.9583 127.573 33 127.656 33C127.781 33 127.906 33 128.031 33C128.198 32.9583 128.323 32.8958 128.406 32.8125C128.531 32.6875 128.698 32.625 128.906 32.625C129.406 32.3333 129.76 32.1875 129.969 32.1875C130.177 32.1458 130.385 32.125 130.594 32.125C130.885 32.1667 131.156 32.25 131.406 32.375C131.698 32.4583 131.948 32.4583 132.156 32.375C132.406 32.625 132.656 32.7708 132.906 32.8125C132.99 33.0625 133.073 33.2708 133.156 33.4375C133.281 33.6042 133.385 33.7917 133.469 34C133.594 34.3333 133.677 34.5833 133.719 34.75C133.76 34.9167 133.802 35.1042 133.844 35.3125C134.052 35.6458 134.135 35.8542 134.094 35.9375C134.094 36.0208 134.094 36.1042 134.094 36.1875C134.26 36.7708 134.365 37.125 134.406 37.25C134.49 37.375 134.49 37.5417 134.406 37.75C134.531 37.9167 134.615 38.2083 134.656 38.625C134.615 39 134.615 39.2292 134.656 39.3125C134.698 39.3542 134.74 39.4167 134.781 39.5C134.823 39.8333 134.844 40.1458 134.844 40.4375C134.844 40.6875 134.906 40.9583 135.031 41.25C134.948 41.4167 134.906 41.6042 134.906 41.8125C134.948 41.9792 134.99 42.1667 135.031 42.375C135.073 42.7917 135.073 43 135.031 43C134.99 43 134.99 43.0208 135.031 43.0625C135.031 43.2708 135.052 43.4583 135.094 43.625C135.177 43.75 135.219 43.9167 135.219 44.125C135.135 44.4583 135.115 44.6875 135.156 44.8125C135.24 44.9375 135.323 45.0833 135.406 45.25C135.281 45.5833 135.198 45.8333 135.156 46C135.156 46.1667 135.219 46.2708 135.344 46.3125C135.26 46.6875 135.177 47.0417 135.094 47.375C135.052 47.6667 135.115 47.875 135.281 48C135.24 48.625 135.198 49.0417 135.156 49.25C135.115 49.4583 135.094 49.6458 135.094 49.8125C135.177 50.0625 135.198 50.2292 135.156 50.3125C135.156 50.3958 135.156 50.4583 135.156 50.5C135.156 50.625 135.135 50.7708 135.094 50.9375C135.094 51.1042 135.115 51.25 135.156 51.375C135.031 51.75 134.99 51.9792 135.031 52.0625C135.115 52.1042 135.177 52.2083 135.219 52.375C135.427 52.5833 135.469 52.7083 135.344 52.75C135.26 52.7917 135.24 52.8958 135.281 53.0625C135.24 53.2708 135.281 53.4792 135.406 53.6875C135.531 53.8958 135.49 54.0833 135.281 54.25C135.365 54.3333 135.406 54.4583 135.406 54.625C135.448 54.7917 135.531 54.9167 135.656 55C135.656 55.3333 135.677 55.5625 135.719 55.6875C135.76 55.8125 135.76 55.9583 135.719 56.125C135.719 56.5 135.76 56.8125 135.844 57.0625C135.927 57.3542 135.969 57.6667 135.969 58C136.052 58.3333 136.052 58.4792 135.969 58.4375C135.927 58.4375 135.885 58.5208 135.844 58.6875C136.052 59.1458 136.094 59.4375 135.969 59.5625C136.052 59.9792 136.115 60.2083 136.156 60.25C136.281 60.7083 136.365 60.9583 136.406 61C136.448 61.0833 136.469 61.1458 136.469 61.1875C136.552 61.6875 136.656 62.0208 136.781 62.1875C136.906 62.3958 137.01 62.6042 137.094 62.8125C137.219 62.8958 137.323 63 137.406 63.125C137.531 63.25 137.635 63.3542 137.719 63.4375C137.844 63.5208 137.969 63.625 138.094 63.75C138.219 63.875 138.323 64 138.406 64.125C138.573 64.125 138.698 64.1667 138.781 64.25C138.865 64.3333 138.948 64.4167 139.031 64.5C139.24 64.5417 139.427 64.5833 139.594 64.625C139.802 64.6667 140.01 64.6875 140.219 64.6875C140.677 64.6458 140.948 64.625 141.031 64.625C141.115 64.6667 141.198 64.6667 141.281 64.625C141.74 64.5 141.99 64.4167 142.031 64.375C142.156 64.2917 142.26 64.1875 142.344 64.0625C142.469 63.9375 142.635 63.8542 142.844 63.8125C142.927 63.7292 143.031 63.6042 143.156 63.4375C143.281 63.3125 143.448 63.25 143.656 63.25C144.031 63.25 144.24 63.4375 144.281 63.8125C144.073 63.8125 143.99 63.9375 144.031 64.1875C144.115 64.4375 144.031 64.5417 143.781 64.5C143.823 64.6667 143.76 64.7708 143.594 64.8125C143.427 64.8542 143.302 64.9167 143.219 65C142.802 65.0833 142.531 65.1458 142.406 65.1875C142.323 65.2708 142.198 65.3125 142.031 65.3125C141.948 65.3958 141.865 65.4375 141.781 65.4375C141.698 65.4792 141.552 65.5417 141.344 65.625C141.26 65.6667 141.156 65.7292 141.031 65.8125C140.906 65.8958 140.781 65.9583 140.656 66C140.406 66.0833 140.177 66.0833 139.969 66C139.844 66.2083 139.677 66.3125 139.469 66.3125C139.26 66.3542 139.01 66.4167 138.719 66.5C137.885 66.625 137.365 66.6667 137.156 66.625C136.865 66.7917 136.698 66.8333 136.656 66.75C136.615 66.6667 136.552 66.625 136.469 66.625C136.177 66.5833 136.01 66.5833 135.969 66.625C135.927 66.6667 135.865 66.6875 135.781 66.6875L135.031 66.5C134.948 66.1667 134.844 65.9792 134.719 65.9375C134.635 65.8958 134.594 65.8333 134.594 65.75C134.26 65.7083 134.052 65.6458 133.969 65.5625C133.885 65.5208 133.74 65.5417 133.531 65.625C133.24 65.4167 133.073 65.25 133.031 65.125C133.031 65 132.969 64.9167 132.844 64.875C132.427 64.4583 132.177 64.1458 132.094 63.9375C132.052 63.7292 132.031 63.4583 132.031 63.125C131.74 62.5833 131.573 62.2292 131.531 62.0625C131.49 61.9375 131.51 61.75 131.594 61.5C131.385 61.2083 131.302 60.8958 131.344 60.5625C131.427 60.2292 131.365 59.9583 131.156 59.75C131.24 59.5833 131.24 59.3958 131.156 59.1875C131.073 59.0208 131.073 58.8333 131.156 58.625C131.031 58.3333 130.969 58.1458 130.969 58.0625C131.01 58.0208 131.073 57.9792 131.156 57.9375C130.99 57.5208 130.865 57.1667 130.781 56.875C130.698 56.4167 130.656 56.1667 130.656 56.125C130.698 56.0417 130.656 56 130.531 56C130.573 55.5833 130.552 55.2917 130.469 55.125C130.427 54.6667 130.406 54.4375 130.406 54.4375C130.448 54.4375 130.469 54.4167 130.469 54.375C130.427 54.1667 130.406 54 130.406 53.875C130.448 53.75 130.448 53.625 130.406 53.5C130.406 53.2083 130.385 52.8958 130.344 52.5625C130.344 52.2292 130.344 51.9375 130.344 51.6875C130.385 51.2292 130.385 50.9583 130.344 50.875C130.344 50.75 130.344 50.6458 130.344 50.5625C130.385 50.3958 130.427 50.25 130.469 50.125C130.51 50 130.531 49.875 130.531 49.75C130.531 49.625 130.51 49.4792 130.469 49.3125C130.469 49.1458 130.552 49 130.719 48.875C130.594 48.375 130.531 48.0417 130.531 47.875C130.406 47.375 130.365 47.1042 130.406 47.0625C130.49 47.0208 130.531 46.9583 130.531 46.875C130.573 46.6667 130.531 46.375 130.406 46V45.25L130.281 44.1875C130.323 44.0625 130.302 43.875 130.219 43.625C130.177 43.375 130.177 43.2083 130.219 43.125C130.302 43.0833 130.302 42.9792 130.219 42.8125C130.177 42.6042 130.115 42.3958 130.031 42.1875C130.031 42.0625 130.052 41.9375 130.094 41.8125C130.135 41.6875 130.073 41.5833 129.906 41.5C130.031 41.2917 130.031 41.1042 129.906 40.9375C129.823 40.7708 129.802 40.5833 129.844 40.375C129.635 40.0833 129.552 39.9167 129.594 39.875C129.677 39.8333 129.719 39.75 129.719 39.625C129.635 39.4583 129.594 39.3125 129.594 39.1875C129.594 39.0208 129.573 38.8333 129.531 38.625C129.49 38.5 129.427 38.375 129.344 38.25C129.26 38.125 129.24 37.9792 129.281 37.8125C129.115 37.5625 129.031 37.3333 129.031 37.125C128.865 36.875 128.74 36.625 128.656 36.375C128.573 36.125 128.469 35.8958 128.344 35.6875C128.135 35.6458 127.969 35.6042 127.844 35.5625C127.76 35.4792 127.594 35.4375 127.344 35.4375C127.052 35.9375 126.865 36.2708 126.781 36.4375C126.615 36.5625 126.469 36.7292 126.344 36.9375C126.219 37.1042 126.094 37.2917 125.969 37.5C125.844 37.9583 125.781 38.2083 125.781 38.25C125.781 38.2917 125.76 38.3542 125.719 38.4375C125.385 38.8958 125.24 39.1458 125.281 39.1875C125.323 39.1875 125.344 39.2292 125.344 39.3125C125.219 39.6875 125.052 39.9792 124.844 40.1875C124.635 40.3542 124.531 40.5625 124.531 40.8125C124.323 41.4792 124.073 41.8958 123.781 42.0625C123.865 42.2708 123.865 42.4375 123.781 42.5625C123.698 42.6875 123.615 42.8125 123.531 42.9375C123.49 43.5208 123.448 43.9167 123.406 44.125C123.365 44.2917 123.302 44.4583 123.219 44.625C123.219 45.0417 123.177 45.2917 123.094 45.375C123.052 45.4167 123.01 45.4792 122.969 45.5625L122.781 46.375C122.698 46.7083 122.656 46.9375 122.656 47.0625C122.656 47.1458 122.594 47.2292 122.469 47.3125C122.469 47.6458 122.427 47.9375 122.344 48.1875C122.302 48.3125 122.281 48.5208 122.281 48.8125C122.323 49.0625 122.281 49.25 122.156 49.375C122.24 49.8333 122.26 50.1458 122.219 50.3125C122.219 50.4792 122.219 50.625 122.219 50.75C122.26 51.0417 122.26 51.2292 122.219 51.3125C122.219 51.3542 122.219 51.4167 122.219 51.5C122.26 51.625 122.302 51.75 122.344 51.875C122.385 52 122.427 52.125 122.469 52.25C121.969 52.6667 121.698 53 121.656 53.25C121.365 53.25 121.094 53.2917 120.844 53.375C120.469 53.5833 120.198 53.7708 120.031 53.9375C119.865 54.0625 119.615 54.1042 119.281 54.0625C118.99 54.2708 118.802 54.3958 118.719 54.4375C118.677 54.4792 118.615 54.4583 118.531 54.375C118.365 54.5417 118.135 54.6042 117.844 54.5625C117.594 54.4792 117.448 54.3333 117.406 54.125C117.448 53.9167 117.469 53.7083 117.469 53.5C117.51 53.2917 117.594 53.0833 117.719 52.875C117.635 52.5417 117.552 52.2917 117.469 52.125C117.427 51.9167 117.365 51.7708 117.281 51.6875C117.198 51.2708 117.281 50.875 117.531 50.5C117.448 50.2083 117.406 50.0417 117.406 50C117.448 49.9583 117.469 49.8958 117.469 49.8125C117.385 49.5625 117.344 49.3333 117.344 49.125C117.219 48.625 117.177 48.3125 117.219 48.1875C117.302 48.0208 117.344 47.875 117.344 47.75C117.177 47.375 117.115 47.1875 117.156 47.1875C117.198 47.1458 117.219 47.0833 117.219 47C117.094 46.8333 117.031 46.5417 117.031 46.125C116.906 45.6667 116.76 45.3125 116.594 45.0625C116.635 44.6042 116.615 44.3542 116.531 44.3125C116.49 44.2708 116.448 44.2083 116.406 44.125C116.406 43.875 116.427 43.6667 116.469 43.5C116.552 43.2917 116.51 43.1667 116.344 43.125C116.427 42.625 116.448 42.3125 116.406 42.1875C116.406 42.0625 116.427 41.9583 116.469 41.875C116.219 41.1667 115.948 40.7292 115.656 40.5625C115.531 40.0625 115.427 39.7708 115.344 39.6875C115.26 39.6042 115.24 39.4583 115.281 39.25C114.99 38.7917 114.802 38.5417 114.719 38.5C114.635 38.4583 114.594 38.375 114.594 38.25C114.51 38.1667 114.385 38.125 114.219 38.125C114.094 38.0833 114.01 38.0208 113.969 37.9375C113.719 37.9792 113.469 38 113.219 38C112.969 37.9583 112.719 37.9375 112.469 37.9375C112.177 38.3542 111.969 38.625 111.844 38.75C111.76 38.8333 111.698 38.9583 111.656 39.125C111.281 39.5833 111.115 39.8333 111.156 39.875C111.115 40 111.052 40.125 110.969 40.25C110.927 40.3333 110.865 40.4583 110.781 40.625C110.573 40.875 110.448 41.0625 110.406 41.1875C110.406 41.2708 110.365 41.3125 110.281 41.3125C110.198 41.6042 110.01 41.9583 109.719 42.375C109.51 42.75 109.406 43 109.406 43.125C109.448 43.25 109.427 43.3542 109.344 43.4375C109.094 43.8125 108.969 44.0417 108.969 44.125C109.01 44.2083 109.01 44.2917 108.969 44.375C108.719 44.6667 108.594 44.9583 108.594 45.25C108.51 45.6667 108.427 45.9375 108.344 46.0625C108.26 46.1875 108.177 46.3333 108.094 46.5C107.969 46.875 107.906 47.1042 107.906 47.1875C107.948 47.2708 107.927 47.3333 107.844 47.375C107.844 47.75 107.802 47.9792 107.719 48.0625C107.677 48.1042 107.677 48.2083 107.719 48.375C107.552 48.4583 107.448 48.625 107.406 48.875C107.365 49.0833 107.281 49.25 107.156 49.375C107.198 49.7083 107.219 49.9375 107.219 50.0625C107.219 50.1458 107.177 50.25 107.094 50.375C106.969 50.5417 106.906 50.7083 106.906 50.875C106.906 51 106.865 51.1042 106.781 51.1875C106.906 51.3958 106.906 51.6042 106.781 51.8125C106.656 51.9792 106.594 52.1667 106.594 52.375C106.635 52.7917 106.635 53.0417 106.594 53.125C106.594 53.1667 106.594 53.2292 106.594 53.3125C106.552 53.5625 106.531 53.7708 106.531 53.9375C106.531 54.0625 106.552 54.1667 106.594 54.25C106.552 54.6667 106.573 54.9792 106.656 55.1875C106.781 55.3542 106.844 55.5625 106.844 55.8125C106.969 56.3125 106.969 56.625 106.844 56.75C106.76 56.8333 106.656 56.9375 106.531 57.0625C106.156 57.4375 105.948 57.625 105.906 57.625L105.219 57.9375C104.927 58.1875 104.74 58.3542 104.656 58.4375C104.573 58.5208 104.49 58.6042 104.406 58.6875C103.906 58.8542 103.635 58.9792 103.594 59.0625C103.177 59.1042 102.948 59.1458 102.906 59.1875C102.906 59.2708 102.885 59.3333 102.844 59.375C102.677 59.2917 102.552 59.25 102.469 59.25C102.385 59.25 102.281 59.1875 102.156 59.0625C102.198 58.8542 102.177 58.6875 102.094 58.5625C102.01 58.4792 102.01 58.3542 102.094 58.1875C102.177 56.8542 102.073 55.7917 101.781 55C101.823 54.875 101.865 54.7083 101.906 54.5C101.948 54.2917 101.948 54.0417 101.906 53.75C101.99 53.2083 102.01 52.875 101.969 52.75C101.969 52.5833 101.969 52.4583 101.969 52.375C101.927 51.9167 101.906 51.6875 101.906 51.6875C101.948 51.6458 101.969 51.6042 101.969 51.5625C101.969 51.1458 101.948 50.9167 101.906 50.875C101.865 50.8333 101.844 50.7708 101.844 50.6875C101.885 50.1458 101.885 49.7708 101.844 49.5625C101.844 49.3542 101.885 49.1458 101.969 48.9375C101.927 48.6458 101.885 48.4167 101.844 48.25C101.802 48.0417 101.823 47.875 101.906 47.75C101.698 47.4583 101.615 47.2917 101.656 47.25C101.698 47.2083 101.719 47.1458 101.719 47.0625C101.635 46.8125 101.552 46.5 101.469 46.125C101.427 45.75 101.427 45.4167 101.469 45.125C101.427 44.75 101.406 44.5417 101.406 44.5C101.406 44.4167 101.427 44.3333 101.469 44.25C101.385 44.125 101.344 44.0208 101.344 43.9375C101.385 43.8125 101.385 43.6458 101.344 43.4375C101.219 43.1458 101.135 42.9583 101.094 42.875C101.052 42.7917 101.073 42.75 101.156 42.75C101.031 42.625 100.969 42.4375 100.969 42.1875C100.969 41.8958 100.927 41.6667 100.844 41.5C100.677 41.125 100.573 40.8125 100.531 40.5625C100.49 40.3125 100.406 40.125 100.281 40C100.281 39.7083 100.219 39.5 100.094 39.375C100.01 39.2083 99.9271 39.0208 99.8438 38.8125C99.6771 38.7708 99.5521 38.7083 99.4688 38.625C99.3854 38.5417 99.2812 38.4583 99.1562 38.375C98.7812 38.0833 98.4479 37.875 98.1562 37.75C97.8646 37.625 97.6146 37.625 97.4062 37.75L96.5938 38.4375ZM145.219 25.375C145.427 25.4583 145.573 25.5208 145.656 25.5625C145.781 25.6042 145.927 25.6875 146.094 25.8125C146.427 26.0625 146.594 26.2292 146.594 26.3125C146.594 26.3958 146.594 26.4583 146.594 26.5C146.719 26.7083 146.823 26.8333 146.906 26.875C146.99 26.875 147.052 26.9167 147.094 27C147.302 27.3333 147.448 27.5417 147.531 27.625C147.656 27.6667 147.802 27.7083 147.969 27.75C148.219 28.125 148.448 28.3542 148.656 28.4375C148.906 28.4792 149.135 28.5208 149.344 28.5625C149.51 28.6875 149.635 28.7708 149.719 28.8125C149.802 28.8542 149.906 28.8542 150.031 28.8125C150.115 29.0208 150.219 29.1875 150.344 29.3125C150.51 29.3958 150.552 29.5833 150.469 29.875C150.344 30 150.24 30.1458 150.156 30.3125C150.073 30.4375 149.927 30.5417 149.719 30.625C149.385 30.8333 149.052 31.0417 148.719 31.25C148.427 31.4583 148.198 31.625 148.031 31.75C147.906 31.875 147.802 32 147.719 32.125C147.552 32.0417 147.406 32.0417 147.281 32.125C147.156 32.2083 147.031 32.2708 146.906 32.3125C146.656 32.3542 146.406 32.3542 146.156 32.3125C145.906 32.2708 145.677 32.2708 145.469 32.3125C145.302 31.9375 145.219 31.7292 145.219 31.6875C145.26 31.6042 145.24 31.5208 145.156 31.4375C144.573 30.9792 144.156 30.6667 143.906 30.5C143.698 30.3333 143.448 30.1458 143.156 29.9375C142.865 29.8125 142.594 29.6667 142.344 29.5C142.135 29.3333 141.906 29.2292 141.656 29.1875C141.573 28.9792 141.49 28.8333 141.406 28.75C141.365 28.6667 141.302 28.5417 141.219 28.375C141.302 27.875 141.406 27.6042 141.531 27.5625C142.406 27.2292 142.969 26.875 143.219 26.5C143.51 26.2083 143.698 26.0417 143.781 26C143.906 25.9583 143.99 25.8958 144.031 25.8125C144.573 25.6458 144.906 25.5625 145.031 25.5625C145.156 25.5625 145.219 25.5 145.219 25.375ZM151.906 55C151.99 55.125 151.99 55.25 151.906 55.375C151.865 55.5 151.865 55.6667 151.906 55.875C151.531 56.0833 151.323 56.2292 151.281 56.3125C151.24 56.3542 151.135 56.3542 150.969 56.3125C150.719 56.5625 150.552 56.75 150.469 56.875C150.427 56.9583 150.302 57 150.094 57L149.469 57.3125C149.219 57.5208 149.052 57.6458 148.969 57.6875C148.885 57.7292 148.802 57.7917 148.719 57.875C148.427 58 148.177 58.0833 147.969 58.125C147.802 58.2083 147.656 58.3125 147.531 58.4375C147.323 58.3958 147.115 58.3542 146.906 58.3125C146.698 58.3125 146.51 58.2292 146.344 58.0625C146.135 58.1042 145.906 58.125 145.656 58.125C145.448 58.125 145.281 58.0833 145.156 58C144.865 57.625 144.677 57.4375 144.594 57.4375C144.552 57.4375 144.552 57.3958 144.594 57.3125C144.344 57.1042 144.115 56.8958 143.906 56.6875C143.698 56.3542 143.594 56.1458 143.594 56.0625C143.635 55.9792 143.573 55.9375 143.406 55.9375C143.49 55.6042 143.531 55.4167 143.531 55.375C143.573 55.2917 143.573 55.2083 143.531 55.125L143.406 53.8125C143.49 53.6458 143.552 53.4792 143.594 53.3125C143.635 53.1458 143.635 52.9583 143.594 52.75C143.552 52.2917 143.552 52.0417 143.594 52C143.635 51.9583 143.656 51.8958 143.656 51.8125C143.615 51.4792 143.615 51.2708 143.656 51.1875C143.698 51.1042 143.719 51.0208 143.719 50.9375C143.677 50.6875 143.677 50.5208 143.719 50.4375C143.76 50.3542 143.781 50.2708 143.781 50.1875C143.781 49.4792 143.74 49 143.656 48.75C143.615 48.5 143.698 48.2708 143.906 48.0625C143.906 47.9792 143.865 47.875 143.781 47.75C143.698 47.5833 143.656 47.4167 143.656 47.25C143.656 46.9583 143.677 46.7292 143.719 46.5625C143.76 46.3542 143.802 46.2083 143.844 46.125C143.844 45.6667 143.823 45.3333 143.781 45.125C143.74 44.875 143.719 44.6458 143.719 44.4375C143.76 43.9375 143.74 43.6042 143.656 43.4375C143.656 43.3125 143.656 43.1875 143.656 43.0625C143.698 42.9375 143.698 42.8333 143.656 42.75C143.406 42.1667 143.24 41.75 143.156 41.5C143.115 41.25 142.948 41.1042 142.656 41.0625C142.365 40.6875 142.073 40.5208 141.781 40.5625C141.531 40.6042 141.302 40.6667 141.094 40.75C140.594 40.75 140.323 40.8333 140.281 41C140.24 41.125 140.115 41.1667 139.906 41.125C139.906 40.9167 139.844 40.7708 139.719 40.6875C139.594 40.5625 139.51 40.3958 139.469 40.1875C139.76 39.8125 139.927 39.6458 139.969 39.6875C140.01 39.7292 140.052 39.75 140.094 39.75C140.51 39.375 140.802 39.1875 140.969 39.1875C140.885 38.9375 140.927 38.8125 141.094 38.8125C141.26 38.8125 141.365 38.7083 141.406 38.5C141.74 38.4583 141.948 38.4167 142.031 38.375C142.115 38.3333 142.198 38.2917 142.281 38.25C142.74 38.2083 143.115 38.0625 143.406 37.8125C143.74 37.8125 144.052 37.7917 144.344 37.75C144.635 37.7083 144.885 37.6042 145.094 37.4375C145.552 37.3542 145.844 37.2917 145.969 37.25C146.635 37.5 147.031 37.7292 147.156 37.9375C147.323 38.1458 147.51 38.3333 147.719 38.5C147.927 39 148.01 39.3542 147.969 39.5625C147.969 39.7292 148.01 39.875 148.094 40C148.094 40.2917 148.135 40.4792 148.219 40.5625C148.302 40.6042 148.365 40.6667 148.406 40.75C148.365 41.1667 148.323 41.4375 148.281 41.5625C148.24 41.6875 148.219 41.8333 148.219 42C148.344 42.375 148.385 42.6458 148.344 42.8125C148.344 42.9792 148.365 43.125 148.406 43.25C148.448 43.9583 148.469 44.3542 148.469 44.4375C148.469 44.9792 148.49 45.3125 148.531 45.4375C148.615 45.5625 148.594 45.7083 148.469 45.875C148.552 46.3333 148.552 46.7917 148.469 47.25C148.385 47.6667 148.427 48.0417 148.594 48.375C148.427 48.5833 148.365 48.7292 148.406 48.8125C148.448 48.8958 148.49 48.9792 148.531 49.0625C148.531 49.2292 148.49 49.3958 148.406 49.5625C148.365 49.7292 148.365 49.8958 148.406 50.0625C148.323 50.7708 148.302 51.3542 148.344 51.8125C148.427 52.2708 148.49 52.6875 148.531 53.0625C148.448 53.4375 148.427 53.7292 148.469 53.9375C148.552 54.1458 148.635 54.3542 148.719 54.5625C148.969 55.0208 149.219 55.3125 149.469 55.4375C149.552 55.5208 149.656 55.6042 149.781 55.6875C149.906 55.7708 150.052 55.8125 150.219 55.8125C150.427 55.7708 150.573 55.6875 150.656 55.5625C150.781 55.3958 150.906 55.2083 151.031 55H151.906ZM171.719 53.6875C171.51 53.7708 171.365 53.8542 171.281 53.9375C171.198 53.9792 171.052 53.9792 170.844 53.9375C170.719 54.1042 170.552 54.2292 170.344 54.3125C170.135 54.3542 169.99 54.4792 169.906 54.6875C169.281 54.8958 168.802 55.0833 168.469 55.25C167.719 55.5833 167.198 55.8125 166.906 55.9375C166.656 56.0625 166.406 56.1875 166.156 56.3125C165.823 56.2292 165.531 56.25 165.281 56.375C165.073 56.5 164.885 56.625 164.719 56.75C164.344 56.7917 163.969 56.7917 163.594 56.75C163.219 56.7083 162.927 56.6875 162.719 56.6875C162.302 56.6042 162.031 56.5625 161.906 56.5625C161.823 56.5625 161.781 56.5208 161.781 56.4375C161.615 56.4792 161.49 56.4792 161.406 56.4375C161.323 56.3958 161.219 56.375 161.094 56.375C160.677 56.125 160.406 56 160.281 56C160.156 55.9583 160.052 55.8958 159.969 55.8125C159.969 55.7708 159.865 55.7292 159.656 55.6875C159.49 55.6458 159.365 55.6667 159.281 55.75L158.406 55.1875C158.031 54.6875 157.781 54.4375 157.656 54.4375C157.323 54.1042 157.156 53.8542 157.156 53.6875C156.99 53.6458 156.865 53.5833 156.781 53.5C156.698 53.4167 156.573 53.3542 156.406 53.3125C156.406 52.9792 156.385 52.7917 156.344 52.75C156.302 52.6667 156.26 52.5208 156.219 52.3125C155.969 51.7708 155.844 51.5 155.844 51.5C155.802 51.3333 155.74 51.2083 155.656 51.125C155.573 51 155.51 50.8958 155.469 50.8125C155.469 50.7292 155.469 50.6458 155.469 50.5625C155.51 50.4375 155.51 50.2917 155.469 50.125C155.302 49.875 155.219 49.625 155.219 49.375C155.177 49.0833 155.115 48.8333 155.031 48.625C154.99 48.4583 154.969 48.2917 154.969 48.125C155.01 47.9583 155.01 47.8333 154.969 47.75C154.844 47.4167 154.781 47.2292 154.781 47.1875C154.781 47.1042 154.823 47.0417 154.906 47C154.781 46.9167 154.76 46.7708 154.844 46.5625C154.927 46.3542 154.885 46.2083 154.719 46.125C154.885 45.9583 154.948 45.75 154.906 45.5C154.865 45.25 154.885 45.0208 154.969 44.8125C155.094 44.5208 155.198 44.2083 155.281 43.875C155.406 43.4583 155.49 43.2083 155.531 43.125C155.615 43 155.677 42.8958 155.719 42.8125C155.802 42.4375 155.865 42.2292 155.906 42.1875C155.948 42.1042 155.969 42.0208 155.969 41.9375C156.094 41.4375 156.26 41.0833 156.469 40.875C156.677 40.625 156.802 40.3333 156.844 40C157.01 39.9583 157.115 39.8542 157.156 39.6875C157.24 39.4792 157.365 39.3333 157.531 39.25C157.656 38.9583 157.781 38.7917 157.906 38.75C158.073 38.6667 158.177 38.5417 158.219 38.375C158.469 38.3333 158.635 38.25 158.719 38.125C158.844 38 158.948 37.8542 159.031 37.6875C159.281 37.6458 159.469 37.5625 159.594 37.4375C159.76 37.2708 159.969 37.1667 160.219 37.125C160.302 36.7917 160.469 36.5833 160.719 36.5C161.01 36.375 161.24 36.2083 161.406 36C161.74 36 161.948 35.875 162.031 35.625C162.573 35.5417 162.927 35.4167 163.094 35.25C163.26 35.0833 163.448 34.9583 163.656 34.875C163.948 34.8333 164.135 34.7917 164.219 34.75C164.302 34.6667 164.427 34.6042 164.594 34.5625C164.969 34.2292 165.156 34.125 165.156 34.25C165.198 34.3333 165.26 34.3333 165.344 34.25C165.51 34.2083 165.656 34.1458 165.781 34.0625C165.948 33.9792 166.135 33.9167 166.344 33.875C166.719 33.8333 166.948 33.8125 167.031 33.8125C167.156 33.7708 167.281 33.7292 167.406 33.6875C167.99 33.6042 168.385 33.5833 168.594 33.625C168.802 33.7083 169.073 33.7917 169.406 33.875C169.74 33.9583 170.01 33.9792 170.219 33.9375C170.302 34.0208 170.406 34.1042 170.531 34.1875C170.656 34.2292 170.76 34.3333 170.844 34.5C171.26 34.7917 171.51 35 171.594 35.125C171.677 35.25 171.802 35.3542 171.969 35.4375C172.26 35.9375 172.448 36.3333 172.531 36.625C172.656 36.875 172.802 37.1458 172.969 37.4375C172.844 37.7708 172.802 37.9583 172.844 38C172.885 38 172.906 38.0417 172.906 38.125C172.906 38.2083 172.885 38.3333 172.844 38.5C172.802 38.625 172.781 38.75 172.781 38.875C172.823 39.2083 172.823 39.4792 172.781 39.6875C172.74 39.8958 172.719 40.1042 172.719 40.3125C172.302 40.8958 171.927 41.2708 171.594 41.4375C171.302 41.6042 171.073 41.8542 170.906 42.1875C170.531 42.3125 170.344 42.4167 170.344 42.5C170.385 42.5833 170.365 42.6458 170.281 42.6875C169.948 42.8958 169.76 43.0417 169.719 43.125C169.677 43.1667 169.656 43.2292 169.656 43.3125C169.323 43.5208 169.01 43.6667 168.719 43.75C168.385 43.875 168.156 44.0208 168.031 44.1875C167.906 44.3125 167.76 44.4167 167.594 44.5C167.469 44.5833 167.302 44.6458 167.094 44.6875C166.927 44.7292 166.781 44.8542 166.656 45.0625C166.198 45.1458 165.906 45.3333 165.781 45.625C165.281 45.625 164.969 45.625 164.844 45.625C164.719 45.5833 164.615 45.5625 164.531 45.5625C164.073 45.8125 163.844 45.9167 163.844 45.875C163.844 45.8333 163.823 45.8333 163.781 45.875C163.656 45.9167 163.51 45.9167 163.344 45.875C163.177 45.8333 162.99 45.7917 162.781 45.75C162.698 45.7083 162.573 45.7292 162.406 45.8125C162.24 45.8542 162.115 45.875 162.031 45.875C161.781 45.9167 161.573 45.875 161.406 45.75C161.24 45.5833 160.99 45.5417 160.656 45.625C160.531 45.5417 160.406 45.4583 160.281 45.375C160.198 45.2917 160.073 45.2917 159.906 45.375C159.865 45.4167 159.823 45.5625 159.781 45.8125C159.781 46.0625 159.865 46.1458 160.031 46.0625C159.865 46.2708 159.781 46.5208 159.781 46.8125C159.781 47.0625 159.885 47.2708 160.094 47.4375C159.969 47.8958 160.01 48.3125 160.219 48.6875C160.469 49.0208 160.615 49.3958 160.656 49.8125C160.865 50.1458 161.094 50.4167 161.344 50.625C161.635 50.7917 161.844 51.0417 161.969 51.375C162.302 51.5417 162.615 51.7292 162.906 51.9375C163.24 52.1458 163.573 52.375 163.906 52.625C164.156 52.7083 164.344 52.7917 164.469 52.875C164.635 52.9167 164.802 52.9375 164.969 52.9375C165.302 53.2292 165.573 53.375 165.781 53.375C166.281 53.5417 166.573 53.6458 166.656 53.6875C166.74 53.7292 166.823 53.75 166.906 53.75C167.281 53.8333 167.51 53.875 167.594 53.875C168.094 53.75 168.385 53.6875 168.469 53.6875C168.594 53.6875 168.719 53.6458 168.844 53.5625C169.177 53.3125 169.427 53.1667 169.594 53.125C169.76 53.0417 169.906 52.9375 170.031 52.8125C170.365 52.5625 170.531 52.4167 170.531 52.375C170.573 52.2917 170.635 52.2292 170.719 52.1875C171.01 51.7708 171.156 51.5417 171.156 51.5C171.323 51.4583 171.427 51.375 171.469 51.25C171.552 51.125 171.635 51.0208 171.719 50.9375C171.969 50.6458 172.115 50.5 172.156 50.5C172.24 50.4583 172.323 50.4167 172.406 50.375C172.615 49.9583 172.74 49.7292 172.781 49.6875C172.865 49.6042 172.969 49.5208 173.094 49.4375C173.677 49.1042 174.031 48.875 174.156 48.75C174.49 48.8333 174.74 48.7917 174.906 48.625C175.073 48.4583 175.26 48.4167 175.469 48.5C175.552 48.875 175.594 49.0833 175.594 49.125C175.594 49.1667 175.615 49.2083 175.656 49.25C175.615 49.375 175.49 49.4583 175.281 49.5C175.073 49.5 174.99 49.6042 175.031 49.8125C174.823 50.3125 174.677 50.6458 174.594 50.8125C174.552 50.9792 174.448 51.125 174.281 51.25C174.198 51.625 173.969 51.8542 173.594 51.9375C173.344 52.1875 173.177 52.3958 173.094 52.5625C172.719 52.6458 172.51 52.8125 172.469 53.0625L171.719 53.6875ZM162.219 42.375C162.385 42.4167 162.594 42.4792 162.844 42.5625C163.094 42.6458 163.26 42.7292 163.344 42.8125C163.594 42.7708 163.823 42.7708 164.031 42.8125C164.24 42.8125 164.427 42.8333 164.594 42.875C165.135 42.9583 165.469 42.9583 165.594 42.875C165.719 42.7917 165.865 42.75 166.031 42.75C166.49 42.7917 166.719 42.7917 166.719 42.75C166.76 42.6667 166.823 42.6042 166.906 42.5625C167.448 42.1458 167.823 41.8958 168.031 41.8125C168.031 41.6875 168.052 41.5833 168.094 41.5C168.177 41.375 168.24 41.25 168.281 41.125C168.281 40.9583 168.26 40.7917 168.219 40.625C168.177 40.4167 168.156 40.2292 168.156 40.0625C168.156 39.6458 168.115 39.3958 168.031 39.3125C167.948 39.1875 167.948 39.0625 168.031 38.9375C167.823 38.6042 167.635 38.3958 167.469 38.3125C167.344 38.2292 167.281 38.0833 167.281 37.875C167.115 37.7083 166.99 37.6042 166.906 37.5625C166.823 37.5208 166.781 37.4375 166.781 37.3125C166.115 36.9375 165.594 36.7708 165.219 36.8125C164.76 36.8542 164.531 36.875 164.531 36.875C164.531 36.8333 164.51 36.8125 164.469 36.8125C164.052 36.9792 163.781 37.0625 163.656 37.0625C163.573 37.0208 163.469 37.0417 163.344 37.125C163.01 37.5417 162.76 37.8125 162.594 37.9375C162.469 38.0208 162.365 38.1667 162.281 38.375C161.906 38.8333 161.615 39.1458 161.406 39.3125C161.24 39.4792 161.198 39.6458 161.281 39.8125C161.156 40.3542 161.135 40.6875 161.219 40.8125C161.344 40.9375 161.365 41.0833 161.281 41.25C161.448 41.4167 161.615 41.6042 161.781 41.8125C161.948 41.9792 162.094 42.1667 162.219 42.375Z" fill="black"/>
</svg>
